<svg id="visual" viewBox="0 0 900 600" width="900" height="600" xmlns="http://www.w3.org/2000/svg" xmlns:xlink="http://www.w3.org/1999/xlink" version="1.1"><rect width="900" height="600" fill="#fff"></rect><g><g transform="translate(890 553)"><path d="M91.7 -33.4C103.7 7.3 88 53.4 56.5 75.8C24.9 98.3 -22.4 97.1 -54.2 74.1C-86 51.1 -102.2 6.3 -90.6 -33.8C-79 -73.9 -39.5 -109.2 0.2 -109.3C39.8 -109.3 79.6 -74.1 91.7 -33.4Z" stroke="#49b9e3" fill="none" stroke-width="20"></path></g><g transform="translate(819 128)"><path d="M40.4 -11.1C45.8 3.7 39.3 24.4 25.4 34.4C11.5 44.4 -9.8 43.6 -24.1 33.2C-38.5 22.8 -45.8 2.7 -40.7 -11.6C-35.5 -26 -17.7 -34.8 -0.1 -34.7C17.4 -34.7 34.9 -25.8 40.4 -11.1Z" stroke="#49b9e3" fill="none" stroke-width="20"></path></g><g transform="translate(62 303)"><path d="M67.1 -18.9C77.3 9.5 69.2 46.7 45.1 64.9C21 83.1 -19.1 82.2 -42.7 63.9C-66.3 45.5 -73.5 9.6 -63.7 -18.4C-53.8 -46.3 -26.9 -66.5 0.8 -66.7C28.5 -67 56.9 -47.4 67.1 -18.9Z" stroke="#49b9e3" fill="none" stroke-width="20"></path></g><g transform="translate(583 515)"><path d="M40.1 -12.7C45.8 4.4 39.9 25.6 26 35.7C12 45.8 -10 44.9 -25.4 33.9C-40.9 22.9 -49.9 1.9 -44.6 -14.8C-39.2 -31.4 -19.6 -43.7 -1.2 -43.3C17.2 -42.9 34.5 -29.9 40.1 -12.7Z" stroke="#49b9e3" fill="none" stroke-width="20"></path></g><g transform="translate(301 71)"><path d="M73.1 -21.9C81.8 2.9 66.9 37.3 42.2 54.3C17.6 71.3 -16.9 71 -40.4 54.3C-63.8 37.5 -76.3 4.3 -67.7 -20.3C-59.2 -45 -29.6 -61.3 1.3 -61.7C32.2 -62.1 64.5 -46.8 73.1 -21.9Z" stroke="#49b9e3" fill="none" stroke-width="20"></path></g><g transform="translate(247 545)"><path d="M62.8 -21.3C70.4 3 58 32.9 35.9 48.9C13.7 65 -18.3 67.1 -36.7 53.1C-55 39.1 -59.8 9.1 -51.4 -16.2C-43.1 -41.6 -21.5 -62.1 3 -63.1C27.6 -64.1 55.2 -45.5 62.8 -21.3Z" stroke="#49b9e3" fill="none" stroke-width="20"></path></g></g></svg>