<svg id="visual" viewBox="0 0 960 540" width="960" height="540" xmlns="http://www.w3.org/2000/svg" xmlns:xlink="http://www.w3.org/1999/xlink" version="1.1"><path d="M0 296L22.8 286.7C45.7 277.3 91.3 258.7 137 260.8C182.7 263 228.3 286 274 293.3C319.7 300.7 365.3 292.3 411.2 283C457 273.7 503 263.3 548.8 277.8C594.7 292.3 640.3 331.7 686 356.2C731.7 380.7 777.3 390.3 823 395.2C868.7 400 914.3 400 937.2 400L960 400L960 0L937.2 0C914.3 0 868.7 0 823 0C777.3 0 731.7 0 686 0C640.3 0 594.7 0 548.8 0C503 0 457 0 411.2 0C365.3 0 319.7 0 274 0C228.3 0 182.7 0 137 0C91.3 0 45.7 0 22.8 0L0 0Z" fill="#95c8fd"></path><path d="M0 218L22.8 217.3C45.7 216.7 91.3 215.3 137 219.2C182.7 223 228.3 232 274 230.5C319.7 229 365.3 217 411.2 219.7C457 222.3 503 239.7 548.8 240.5C594.7 241.3 640.3 225.7 686 212.8C731.7 200 777.3 190 823 193.8C868.7 197.7 914.3 215.3 937.2 224.2L960 233L960 0L937.2 0C914.3 0 868.7 0 823 0C777.3 0 731.7 0 686 0C640.3 0 594.7 0 548.8 0C503 0 457 0 411.2 0C365.3 0 319.7 0 274 0C228.3 0 182.7 0 137 0C91.3 0 45.7 0 22.8 0L0 0Z" fill="#548ab9"></path><path d="M0 166L22.8 161.2C45.7 156.3 91.3 146.7 137 143.8C182.7 141 228.3 145 274 146C319.7 147 365.3 145 411.2 145.2C457 145.3 503 147.7 548.8 137C594.7 126.3 640.3 102.7 686 96.7C731.7 90.7 777.3 102.3 823 119C868.7 135.7 914.3 157.3 937.2 168.2L960 179L960 0L937.2 0C914.3 0 868.7 0 823 0C777.3 0 731.7 0 686 0C640.3 0 594.7 0 548.8 0C503 0 457 0 411.2 0C365.3 0 319.7 0 274 0C228.3 0 182.7 0 137 0C91.3 0 45.7 0 22.8 0L0 0Z" fill="#005179"></path></svg>