<svg id="visual" viewBox="0 0 900 200" width="900" height="200" xmlns="http://www.w3.org/2000/svg" xmlns:xlink="http://www.w3.org/1999/xlink" version="1.1"><rect x="0" y="0" width="900" height="200" fill="#fff"></rect><path d="M0 157L18.8 149.8C37.7 142.7 75.3 128.3 112.8 119C150.3 109.7 187.7 105.3 225.2 109.2C262.7 113 300.3 125 337.8 129.8C375.3 134.7 412.7 132.3 450.2 128.7C487.7 125 525.3 120 562.8 126.2C600.3 132.3 637.7 149.7 675.2 152.5C712.7 155.3 750.3 143.7 787.8 139.3C825.3 135 862.7 138 881.3 139.5L900 141L900 0L881.3 0C862.7 0 825.3 0 787.8 0C750.3 0 712.7 0 675.2 0C637.7 0 600.3 0 562.8 0C525.3 0 487.7 0 450.2 0C412.7 0 375.3 0 337.8 0C300.3 0 262.7 0 225.2 0C187.7 0 150.3 0 112.8 0C75.3 0 37.7 0 18.8 0L0 0Z" fill="#ffffff"></path><path d="M0 131L18.8 121.8C37.7 112.7 75.3 94.3 112.8 94.5C150.3 94.7 187.7 113.3 225.2 119C262.7 124.7 300.3 117.3 337.8 112.5C375.3 107.7 412.7 105.3 450.2 107.8C487.7 110.3 525.3 117.7 562.8 113.7C600.3 109.7 637.7 94.3 675.2 86.7C712.7 79 750.3 79 787.8 83.7C825.3 88.3 862.7 97.7 881.3 102.3L900 107L900 0L881.3 0C862.7 0 825.3 0 787.8 0C750.3 0 712.7 0 675.2 0C637.7 0 600.3 0 562.8 0C525.3 0 487.7 0 450.2 0C412.7 0 375.3 0 337.8 0C300.3 0 262.7 0 225.2 0C187.7 0 150.3 0 112.8 0C75.3 0 37.7 0 18.8 0L0 0Z" fill="#edf5fe"></path><path d="M0 56L18.8 57.3C37.7 58.7 75.3 61.3 112.8 70.7C150.3 80 187.7 96 225.2 100C262.7 104 300.3 96 337.8 90.5C375.3 85 412.7 82 450.2 77C487.7 72 525.3 65 562.8 62.8C600.3 60.7 637.7 63.3 675.2 71.7C712.7 80 750.3 94 787.8 100.5C825.3 107 862.7 106 881.3 105.5L900 105L900 0L881.3 0C862.7 0 825.3 0 787.8 0C750.3 0 712.7 0 675.2 0C637.7 0 600.3 0 562.8 0C525.3 0 487.7 0 450.2 0C412.7 0 375.3 0 337.8 0C300.3 0 262.7 0 225.2 0C187.7 0 150.3 0 112.8 0C75.3 0 37.7 0 18.8 0L0 0Z" fill="#dbebfd"></path><path d="M0 50L18.8 49C37.7 48 75.3 46 112.8 44.5C150.3 43 187.7 42 225.2 47.2C262.7 52.3 300.3 63.7 337.8 62.8C375.3 62 412.7 49 450.2 49.3C487.7 49.7 525.3 63.3 562.8 68.2C600.3 73 637.7 69 675.2 63.7C712.7 58.3 750.3 51.7 787.8 54.3C825.3 57 862.7 69 881.3 75L900 81L900 0L881.3 0C862.7 0 825.3 0 787.8 0C750.3 0 712.7 0 675.2 0C637.7 0 600.3 0 562.8 0C525.3 0 487.7 0 450.2 0C412.7 0 375.3 0 337.8 0C300.3 0 262.7 0 225.2 0C187.7 0 150.3 0 112.8 0C75.3 0 37.7 0 18.8 0L0 0Z" fill="#c8e1fc"></path><path d="M0 31L18.8 32.7C37.7 34.3 75.3 37.7 112.8 36.5C150.3 35.3 187.7 29.7 225.2 25.7C262.7 21.7 300.3 19.3 337.8 17.7C375.3 16 412.7 15 450.2 17C487.7 19 525.3 24 562.8 29.8C600.3 35.7 637.7 42.3 675.2 42.2C712.7 42 750.3 35 787.8 29.8C825.3 24.7 862.7 21.3 881.3 19.7L900 18L900 0L881.3 0C862.7 0 825.3 0 787.8 0C750.3 0 712.7 0 675.2 0C637.7 0 600.3 0 562.8 0C525.3 0 487.7 0 450.2 0C412.7 0 375.3 0 337.8 0C300.3 0 262.7 0 225.2 0C187.7 0 150.3 0 112.8 0C75.3 0 37.7 0 18.8 0L0 0Z" fill="#b4d7fa"></path></svg>