<svg id="visual" viewBox="0 0 900 300" width="900" height="300" xmlns="http://www.w3.org/2000/svg" xmlns:xlink="http://www.w3.org/1999/xlink" version="1.1"><path d="M0 206L180 255L360 219L540 224L720 223L900 216L900 0L720 0L540 0L360 0L180 0L0 0Z" fill="#c8e0ff"></path><path d="M0 157L180 167L360 183L540 133L720 138L900 199L900 0L720 0L540 0L360 0L180 0L0 0Z" fill="#96b6db"></path><path d="M0 98L180 128L360 118L540 143L720 98L900 122L900 0L720 0L540 0L360 0L180 0L0 0Z" fill="#638db7"></path><path d="M0 54L180 53L360 56L540 87L720 83L900 61L900 0L720 0L540 0L360 0L180 0L0 0Z" fill="#296795"></path></svg>