<?xml version="1.0" encoding="utf-8"?>
<!-- Generator: Adobe Illustrator 24.0.0, SVG Export Plug-In . SVG Version: 6.00 Build 0)  -->
<svg version="1.1" id="Capa_1" xmlns="http://www.w3.org/2000/svg" xmlns:xlink="http://www.w3.org/1999/xlink" x="0px" y="0px"
	 viewBox="0 0 229.44 102.82" style="enable-background:new 0 0 229.44 102.82;" xml:space="preserve">
<style type="text/css">
	.st0{fill:#7A3815;}
	.st1{fill:#FDDBC0;}
	.st2{fill:#F9C2A1;}
	.st3{fill:#F9C2A0;}
</style>
<g>
	<g>
		<path class="st0" d="M168.75,68.75c0,0-9.58,4.69-14.31-0.72c-3.63-4.15-3.41-8.02-9.35-12.33c-5.86-4.25-14.91-3.01-14.6-8.43
			c0.31-5.42,8.73-10.65,16.98-6.17c0,0-15.9-26.41,3.27-23.48c0,0-0.1-5.06,4.7-7.83s9.11,2.98,8.25,4.48c0,0,11-9.71,12.51,4.39
			c0,0,4.71-1.81,6.76,3.59c1.79,4.72-0.39,13.58-0.47,15.13c-0.18,3.19,7.69,21.16-8.17,28.66l-5.42,2.64L168.75,68.75z"/>
		<path class="st1" d="M174.12,66.13c0,0-0.61-0.24,0.21-0.96c0.81-0.72,6.79-8.7,6.6-12.21c0,0-0.05-6.83-0.34-9.5
			c0,0-0.65-8.28-0.56-10.54c0.05-1.18,1.02-11.2-1.65-11.78c-2.67-0.58-3.3,3.65-3.97,8.66c-0.67,5.01,0.11,11.67-0.98,10.43
			c-1.09-1.24-1.54-4.41-1.6-5.95c-0.08-2.52,0.4-9.55,0.57-10.07c0.12-0.35,2.11-9.96-1.37-9.82c-3.49,0.14-5.44,0.39-5.88,8.13
			c-0.44,7.74,0.98,16.79,0.57,17.15s-4.32-12.36-3.65-17.37c0.67-5.01-1.56-9.98-4.86-9.68c-1.74,0.16-5.12,1.58-3.15,14.55
			c1.97,12.97,4.12,15.55,2.33,13.39c-2.99-3.61-5.91-11.7-5.56-17.89c0,0,0.22-3.87-4.9-2.29s1.52,14.11,4.33,18.97
			c0,0,6.23,12.89,2.7,13.8c0,0-2.15-9.87-10.21-10.84c-8.07-0.97-11.5,5.01-7.69,6.06c3.81,1.05,14.05,4.5,17.19,10.56
			c3.14,6.06,4.87,9.92,10.66,9.7c0.81-0.03,1.54-0.07,2.19-0.12c3.88-0.28,4.98-0.74,3.1,0.48"/>
		<path class="st2" d="M180.03,32.92c0.07,2.24,0.09,5.09,0.24,5.94c0.48,2.79,0.93,14.36,0.93,14.36s-0.09,1.55-0.54,2.68
			s-2.21,4.9-2.58,4.48s1.94-6.86,2.03-8.41c0.09-1.55,0.54-2.68-1.74-10.23s-0.29-8.57,0.25-11.26c0,0,1.1-3.78,1.17-5.19
			c0.09-1.81-0.06-2.95,0.38-0.1c0.42,2.72,0.08,4.63-0.05,6.17C180.09,31.76,180.02,32.54,180.03,32.92z"/>
		<path class="st3" d="M171.03,14.4c3.49-0.14,1.56,9.21,1.37,9.82c-0.16,0.5-0.65,7.54-0.57,10.07c0.05,1.53,0.51,4.7,1.6,5.95
			c0,0-5.08-5.81-3.87-13.5s2.12-11.75,0.22-12.28L171.03,14.4z"/>
	</g>
	<g>
		<path class="st0" d="M178.06,82.15c0,0-10.42-2.85-10.42-10.1c0-5.56,2.75-8.34,1.1-15.57c-1.63-7.13-9.35-12.24-5.5-16.13
			c3.85-3.89,13.75-2.22,17.05,6.67c0,0,5.5-30.59,18.15-15.57c0,0,3.3-3.89,8.8-2.78c5.5,1.11,4.95,8.34,3.3,8.9
			c0,0,14.85,0,6.6,11.68c0,0,4.79,1.77,2.75,7.23c-1.78,4.76-9.35,10.01-10.45,11.12c-2.27,2.29-8.25,21.13-25.33,16.22l-5.89-1.62
			L178.06,82.15z"/>
		<path class="st1" d="M183.89,83.76c0,0-0.3-0.59,0.8-0.59s11-1.67,13.2-4.45c0,0,4.33-4.69,6.05-7.79
			c1.29-2.33,5.43-7.06,6.71-8.5c0.89-1,8.14-7.63,6.49-9.85s-4.95,0.56-8.8,3.89c-3.85,3.34-7.7,8.9-7.7,7.23s2.75-5.56,2.75-5.56
			s6.77-6.72,7.69-7.53c1.14-1.01,7.42-5.62,4.96-8.04c-2.52-2.48-4.4-3.34-9.9,2.22s-10.45,13.35-11,13.35s5.67-11.54,8.8-15.57
			c2.72-3.5,5.31-9.05,2-11c-1.71-1.01-4.2-1.79-11.35,9.33s-7.32,14.51-7.15,11.68c0.28-4.68,3.96-12.21,6.09-17.69
			c0,0,1.85-3.46-0.59-4.55c-4.96-2.21-8.25,11.68-9.35,17.24c0,0-3.85,13.9-7.15,12.24c0,0,4.95-8.9-0.55-15.02
			c-5.5-6.12-12.1-3.89-9.9-0.56s7.7,12.79,6.05,19.47s-2.9,10.75,1.65,14.46c0.64,0.52,1.22,0.97,1.75,1.37
			c3.15,2.38,4.28,2.77,2.04,2.43"/>
		<path class="st2" d="M210.54,62.59c-1.74,1.57-6.59,8.35-6.59,8.35c-1.57,2.88-6.06,7.78-6.06,7.78s-0.36,0.44-1.79,1.31
			c-1.05,0.64-4.56,1.87-5.56,2.02c-0.54,0.08,6.25-3.89,7.35-5s2.2-1.67,5.5-8.9c3.3-7.23,5.5-6.67,7.7-8.34
			c0,0,3.39-2.1,4.35-3.15c1.2-1.3,1.91-2.02,0.34,0.15c-1.63,2.24-4.14,4.67-4.14,4.67L210.54,62.59z"/>
		<path class="st3" d="M216.04,42.57c2.75,2.22-4.55,7.73-6.53,9.48c-1.14,1.01-6.12,6.09-6.12,6.09s-2.75,3.89-2.75,5.56
			c0,0,0-7.79,6.05-12.79s9.35-7.79,8.25-9.45L216.04,42.57z"/>
	</g>
	<g>
		<path d="M42.35,70.95c0-0.57-0.13-1.48-0.4-2.73c-0.27-1.25-0.4-2.16-0.4-2.73c0-0.98,0.23-1.8,0.69-2.44
			c1.83-2.61,4.6-3.92,8.31-3.92c2.75,0,5.18,0.8,7.28,2.39c0.27,0.19,0.4,0.47,0.4,0.85c0,0.42-0.22,0.83-0.66,1.25
			c-0.44,0.42-0.97,0.68-1.58,0.8c-0.69,0.08-1.62-0.04-2.81-0.34c-1.3-0.34-2.22-0.51-2.75-0.51c-0.57,0-1.11,0.1-1.6,0.28
			c-1.03,0.45-1.55,1.42-1.55,2.9c0,0.34,0.06,0.9,0.17,1.68c0.11,0.78,0.17,1.35,0.17,1.73c0,0.76-0.11,1.36-0.34,1.82
			c0.76,0.42,1.73,0.63,2.91,0.63c0.38,0,0.94-0.03,1.68-0.09c0.74-0.06,1.28-0.09,1.62-0.09c2.05,0,3.4,0.82,4.05,2.44
			c-0.76,1.36-2.33,2.06-4.7,2.1c-2.6,0.04-4.22,0.41-4.87,1.11c-0.65,0.7-0.97,1.85-0.97,3.44c0-0.49,0.17,1.31,0.52,5.4
			c0.46,0.11,0.94,0.17,1.43,0.17c1.41,0,3.17-0.44,5.27-1.31c2.87-1.17,4.6-1.84,5.22-1.99c0.15-0.19,0.5-0.02,1.03,0.51
			c0.11,0.38,0.17,0.76,0.17,1.14c0,1.4-0.67,2.35-2.01,2.84c-2.06,0.76-4.11,1.53-6.13,2.33c-2.33,0.8-4.43,1.16-6.3,1.08
			c-0.73-0.08-1.45-0.14-2.18-0.2c-0.73-0.06-1.15-0.35-1.26-0.88c-0.38-1.14-0.57-2.5-0.57-4.09c0-0.53,0.03-1.33,0.09-2.41
			c0.06-1.08,0.09-1.9,0.09-2.47c0-1.36-0.13-2.56-0.4-3.58c-0.04-0.15-0.23-0.51-0.57-1.08c-0.31-0.45-0.46-0.83-0.46-1.14
			c0-0.26,0.08-0.49,0.25-0.68l0.87-0.8C42.25,74.02,42.35,72.88,42.35,70.95z"/>
		<path d="M64.07,80.26c0-0.61-0.05-1.57-0.14-2.9c-0.1-1.33-0.14-2.31-0.14-2.95c0-1.44,0.17-2.61,0.52-3.52
			c0.34-0.8,1.07-1.19,2.18-1.19c1.26,0,2.04,0.49,2.35,1.48c0.08,0.23,0.11,0.49,0.11,0.8c0,0.38-0.11,0.96-0.32,1.73
			c-0.21,0.78-0.32,1.37-0.32,1.79c0.34,0.3,0.52,0.53,0.52,0.68c1.3-2.12,2.16-3.41,2.58-3.86c1.07-1.25,2.27-1.87,3.61-1.87
			c0.5,0,1.01,0.08,1.55,0.23c1.34,2.2,2.22,4.94,2.64,8.24c0.11,0.95,0.29,3.88,0.52,8.81c0.42,1.67,0.17,2.63-0.74,2.9
			c-1.03,0.3-1.83,0.45-2.41,0.45c-0.88,0-1.38-0.32-1.49-0.97c-0.19-1.44-0.36-3.79-0.52-7.05c-0.11-2.95-0.34-5.25-0.69-6.87
			c-1.07,1.17-2.06,2.97-2.98,5.4c-1.18,3.03-2.03,4.97-2.52,5.82c-0.5,0.85-1.24,1.28-2.24,1.28c-1.03,0-1.7-0.59-2.01-1.76
			c-0.19-0.83-0.27-1.93-0.23-3.3C64.02,81.16,64.07,80.04,64.07,80.26z M70.38,62.2c0.34,0.04,0.7,0.6,1.06,1.68
			c0.36,1.08,0.54,2.09,0.54,3.04c0,1.1-0.34,1.65-1.03,1.65c-0.84,0-2.01-1.19-3.5-3.58c-0.11-0.23-0.17-0.45-0.17-0.68
			c0-0.57,0.36-1.08,1.09-1.53C69.1,62.31,69.77,62.12,70.38,62.2z M78.11,62.14c0,0.8-0.27,1.82-0.8,3.07
			c-0.65,1.44-1.3,2.16-1.95,2.16c-0.57,0-1.03-0.66-1.38-1.99c-0.04-0.15-0.17-1.04-0.4-2.67c-0.15-1.02,0.67-1.53,2.46-1.53
			C77.43,61.18,78.11,61.5,78.11,62.14z M84.07,67.2c0.19,0.45-0.26,1.03-1.35,1.73c-1.09,0.7-1.98,0.96-2.66,0.77
			c-0.57-0.15-0.86-0.64-0.86-1.48c0-1.14,0.32-2.29,0.97-3.47c0.15-0.26,0.38-0.4,0.69-0.4c0.53,0,1.15,0.34,1.83,1.02
			C83.39,66.06,83.85,66.67,84.07,67.2z"/>
		<path d="M85.68,68.67c-0.5-0.57-1-1.15-1.52-1.73c-0.52-0.59-0.77-1.11-0.77-1.56c0-0.34,0.15-0.68,0.46-1.02
			c2.1-2.61,5.25-4.51,9.46-5.68c3.74-0.8,7.47-1.59,11.18-2.39c0.23-0.04,0.46-0.06,0.69-0.06c0.73,0,1.44,0.26,2.15,0.77
			c0.71,0.51,1.06,1.11,1.06,1.79c0,1.21-0.88,2.03-2.64,2.44c-1.22,0.45-3.46,0.91-6.71,1.36c-2.79,0.38-4.93,0.97-6.42,1.76
			c-0.69,0.38-1.03,0.78-1.03,1.19c0,0.11,0.02,0.23,0.06,0.34c1.11,1.67,3.07,3.52,5.9,5.57c3.55,2.54,5.69,4.17,6.42,4.89
			c2.02,1.97,3.04,4.03,3.04,6.19c0,0.72-0.11,1.48-0.34,2.27c-0.69,2.58-2.33,4.56-4.93,5.97c-2.37,1.25-5.14,1.87-8.31,1.87
			c-2.94,0-5.62-0.55-8.02-1.65c-1.11-0.49-1.66-1.29-1.66-2.39c0-0.83,0.32-1.68,0.95-2.53s1.38-1.49,2.26-1.9
			c0.57-0.11,1.09,0.17,1.55,0.85c0.5,0.8,0.92,1.25,1.26,1.36c0.84,0,2.1,0.21,3.78,0.62c0.61,0.3,1.26,0.45,1.95,0.45
			c0.73,0,1.57-0.21,2.52-0.63c0.8-0.38,1.6-0.74,2.41-1.08c0.69-0.53,1.03-1.23,1.03-2.1c0-0.53-0.13-1.08-0.4-1.65
			c-1.45-1.86-4-4.07-7.65-6.65C89.74,72.8,87.17,70.57,85.68,68.67z"/>
		<path d="M110.55,76.57c-0.04-2.58,0.73-4.72,2.29-6.45c1.57-1.72,3.57-2.59,6.02-2.59c2.6,0,4.9,0.98,6.91,2.93
			c2.01,1.95,2.99,4.23,2.95,6.85c-0.34,1.06-1.78,2.33-4.3,3.81c-3.13,1.86-4.87,2.95-5.22,3.3c-0.65,0.3-0.97,0.63-0.97,0.97
			c0,0.61,0.42,1.15,1.26,1.62c0.84,0.47,1.58,0.71,2.24,0.71c1.26,0,3.07-0.61,5.44-1.82c0.73,0.53,1.09,1.25,1.09,2.16
			c0,0.72-0.23,1.38-0.69,1.99c-0.46,0.61-1.05,0.97-1.78,1.08c-2.45,0.38-3.99,0.57-4.64,0.57c-1.3,0-2.46-0.23-3.5-0.68
			C113.11,89,110.74,84.19,110.55,76.57z M116.8,79.47c3.4-0.15,5.46-1.34,6.19-3.58c0.15-0.3,0.23-0.61,0.23-0.91
			c0-0.8-0.42-1.44-1.26-1.93c-0.84-0.49-1.78-0.74-2.81-0.74c-0.76,0-1.41,0.15-1.95,0.45c-1.11,0.57-1.66,1.76-1.66,3.58
			C115.54,78.35,115.96,79.39,116.8,79.47z"/>
		<path d="M134.28,59.7c2.22-2.2,4.05-3.3,5.5-3.3c0.8,0,1.64,0.27,2.52,0.8c0.61,0.38,1.03,1.1,1.26,2.16
			c0.31,1.33,0.59,2.18,0.86,2.56c0.46,0.64,0.86,0.97,1.2,0.97c0.31,0,0.82-0.47,1.55-1.42c0.88-1.06,1.76-1.78,2.64-2.16
			c0.19-0.08,0.38-0.11,0.57-0.11c0.88,0,1.32,0.47,1.32,1.42c0,0.23-0.06,0.44-0.17,0.63c-1.53,2.31-2.75,3.81-3.67,4.49
			c-1.03,0.8-2.43,1.23-4.18,1.31c-1.68,0.08-2.81-0.81-3.38-2.67c-0.5-1.67-1.07-2.4-1.72-2.22c-1.11,0.38-2.12,1.25-3.04,2.61
			c-0.76,1.17-1.7,1.76-2.81,1.76c-0.42,0-0.9-0.06-1.43-0.17c-0.34-0.11-0.54-0.45-0.57-1.02c-0.04-0.57,0.08-1.04,0.34-1.42
			c0.46-0.72,0.94-1.46,1.43-2.22C132.84,61.19,133.43,60.53,134.28,59.7z M132.15,80.26c0-0.61-0.05-1.57-0.14-2.9
			c-0.1-1.33-0.14-2.31-0.14-2.95c0-1.44,0.17-2.61,0.52-3.52c0.34-0.8,1.07-1.19,2.18-1.19c1.26,0,2.04,0.49,2.35,1.48
			c0.08,0.23,0.11,0.49,0.11,0.8c0,0.38-0.11,0.96-0.32,1.73c-0.21,0.78-0.32,1.37-0.32,1.79c0.34,0.3,0.52,0.53,0.52,0.68
			c1.3-2.12,2.16-3.41,2.58-3.86c1.07-1.25,2.27-1.87,3.61-1.87c0.5,0,1.01,0.08,1.55,0.23c1.34,2.2,2.22,4.94,2.64,8.24
			c0.11,0.95,0.29,3.88,0.52,8.81c0.42,1.67,0.17,2.63-0.74,2.9c-1.03,0.3-1.83,0.45-2.41,0.45c-0.88,0-1.38-0.32-1.49-0.97
			c-0.19-1.44-0.36-3.79-0.52-7.05c-0.11-2.95-0.34-5.25-0.69-6.87c-1.07,1.17-2.06,2.97-2.98,5.4c-1.18,3.03-2.03,4.97-2.52,5.82
			c-0.5,0.85-1.24,1.28-2.24,1.28c-1.03,0-1.7-0.59-2.01-1.76c-0.19-0.83-0.27-1.93-0.23-3.3C132.1,81.16,132.15,80.04,132.15,80.26
			z"/>
		<path d="M165.99,93.82c-0.33-0.21-0.66-0.63-1-1.28c-0.31-0.53-0.59-0.8-0.86-0.8c-2.03-0.34-4.07-0.68-6.13-1.02
			c-2.25-0.57-3.86-1.67-4.81-3.3c-0.61-0.8-0.92-1.86-0.92-3.18c0-1.93,0.48-3.52,1.43-4.77c2.29-3.07,5.65-4.6,10.09-4.6
			c1.91,0,2.83,0.06,2.75,0.17c0.31-0.45,0.46-1.08,0.46-1.9c0-0.97-0.29-1.52-0.86-1.65c-0.57-0.13-1.15-0.2-1.72-0.2
			c-0.99,0-2.09,0.23-3.3,0.69c-1.2,0.46-2.38,0.89-3.52,1.3c-0.19,0.07-0.36,0.11-0.52,0.11c-0.61,0-1.11-0.44-1.49-1.31
			c-0.31-0.68-0.46-1.42-0.46-2.22c0-0.49,0.06-0.8,0.17-0.91c2.52-1.7,5.37-2.56,8.54-2.56c3.32,0,5.56,1.17,6.71,3.52
			c0.61,1.29,0.92,2.69,0.92,4.2c0,1.25-0.25,3.01-0.75,5.28c-0.57,2.5-0.92,4.32-1.03,5.45c-0.19,2.84-0.38,4.77-0.57,5.8
			c-0.46,2.31-1.18,3.47-2.18,3.47C166.63,94.13,166.32,94.02,165.99,93.82z M164.93,86.91c0.11-0.53,0.36-1.48,0.74-2.84
			c0.34-1.06,0.52-1.93,0.52-2.61c0-0.8-0.17-1.59-0.52-2.39c-1.95,0.42-3.88,0.82-5.79,1.19c-2.25,0.64-3.4,1.97-3.44,3.98
			c-0.04,0.87,0.8,1.61,2.52,2.22c1.49,0.57,2.98,0.85,4.47,0.85C164.32,87.31,164.82,87.18,164.93,86.91z M163.67,82.76
			c0,0.49-0.17,1.04-0.52,1.65c-0.34,0.61-0.71,0.91-1.09,0.91c-0.61,0-1.1-0.26-1.46-0.8c-0.36-0.53-0.51-1.02-0.43-1.48
			c0.15-0.8,0.8-1.19,1.95-1.19C163.16,81.86,163.67,82.16,163.67,82.76z"/>
		<path d="M184.42,67.2c1.45,0.57,2.9,1.16,4.36,1.76c1.57,0.76,2.64,1.7,3.21,2.84c0.11,0.15,0.17,0.36,0.17,0.63
			c0,1.06-0.36,1.82-1.09,2.27c-0.34,0.19-0.73,0.28-1.15,0.28c-0.65,0-1.87-0.54-3.67-1.62c-1.8-1.08-3.21-1.62-4.24-1.62
			c-0.76,0-1.51,0.21-2.24,0.63c-0.34,0.23-0.52,0.55-0.52,0.97c0,0.53,0.32,1.14,0.95,1.82c0.63,0.68,1.19,1.12,1.69,1.31
			c3.97,1.41,6.99,3.06,9.05,4.96c0.69,0.65,1.03,1.54,1.03,2.68c0,1.33-0.41,2.68-1.23,4.05c-0.82,1.37-2.16,2.52-4.01,3.45
			c-1.85,0.93-3.75,1.4-5.7,1.4c-3.44,0-5.85-1.42-7.22-4.26c-0.11-0.23-0.17-0.49-0.17-0.8c0-0.64,0.31-1.24,0.92-1.79
			c0.61-0.55,1.26-0.84,1.95-0.88c0.53-0.08,1.01,0.27,1.43,1.02c0.5,0.87,0.9,1.38,1.2,1.53c0.69,0.34,1.47,0.51,2.35,0.51
			c1.34,0,2.51-0.35,3.52-1.05c1.01-0.7,1.52-1.62,1.52-2.76c0-0.87-0.88-1.7-2.64-2.5c-1.95-0.83-3.88-1.65-5.79-2.44
			c-2.06-1.06-3.5-2.4-4.3-4.03c-0.23-0.49-0.34-0.98-0.34-1.48c0-1.7,1.09-3.35,3.27-4.94c2.06-1.51,4.09-2.27,6.07-2.27
			C183.42,66.86,183.96,66.97,184.42,67.2z"/>
	</g>
</g>
</svg>
