<?xml version="1.0" encoding="utf-8"?>
<!-- Generator: Adobe Illustrator 24.0.0, SVG Export Plug-In . SVG Version: 6.00 Build 0)  -->
<svg version="1.1" id="Capa_1" xmlns="http://www.w3.org/2000/svg" xmlns:xlink="http://www.w3.org/1999/xlink" x="0px" y="0px"
	 viewBox="0 0 243.47 161.71" style="enable-background:new 0 0 243.47 161.71;" xml:space="preserve">
<style type="text/css">
	.st0{opacity:0.57;}
	.st1{fill:#DDDDDD;}
	.st2{fill:#FFFFFF;}
</style>
<g class="st0">
	<g>
		<g>
			<path class="st1" d="M155.74,98.69c0,0-10.65,5.21-15.91-0.8c-4.04-4.61-3.79-8.92-10.4-13.71c-6.51-4.73-16.58-3.35-16.24-9.37
				c0.34-6.03,9.71-11.84,18.88-6.86c0,0-17.68-29.36,3.64-26.11c0,0-0.11-5.63,5.23-8.7c5.34-3.08,10.13,3.32,9.18,4.98
				c0,0,12.23-10.8,13.91,4.89c0,0,5.23-2.01,7.51,4c1.99,5.24-0.43,15.1-0.53,16.82c-0.2,3.55,8.55,23.52-9.08,31.87l-6.02,2.93
				L155.74,98.69z"/>
			<path class="st2" d="M161.71,95.79c0,0-0.67-0.27,0.23-1.07s7.55-9.67,7.34-13.58c0,0-0.05-7.6-0.38-10.57
				c0,0-0.72-9.2-0.62-11.72c0.05-1.31,1.14-12.45-1.83-13.1c-2.97-0.64-3.67,4.06-4.42,9.63c-0.75,5.57,0.12,12.98-1.09,11.59
				s-1.72-4.91-1.77-6.61c-0.09-2.81,0.44-10.62,0.64-11.19c0.13-0.39,2.35-11.07-1.53-10.92c-3.88,0.16-6.05,0.43-6.54,9.04
				s1.09,18.67,0.63,19.07c-0.45,0.4-4.81-13.74-4.06-19.31c0.75-5.57-1.74-11.09-5.41-10.76c-1.93,0.17-5.69,1.75-3.5,16.18
				s4.58,17.29,2.59,14.88c-3.32-4.02-6.57-13.01-6.18-19.89c0,0,0.25-4.31-5.45-2.55c-5.69,1.75,1.69,15.68,4.82,21.09
				c0,0,6.92,14.33,3,15.34c0,0-2.39-10.98-11.36-12.05c-8.97-1.07-12.79,5.57-8.55,6.74c4.23,1.17,15.63,5.01,19.11,11.74
				c3.49,6.73,5.42,11.03,11.86,10.79c0.9-0.03,1.71-0.08,2.44-0.13c4.32-0.32,5.53-0.82,3.45,0.53"/>
			<path class="st2" d="M168.28,58.86c0.08,2.49,0.1,5.66,0.26,6.61c0.53,3.1,1.03,15.96,1.03,15.96s-0.1,1.72-0.6,2.98
				s-2.46,5.44-2.86,4.98c-0.4-0.46,2.15-7.63,2.25-9.35s0.6-2.98-1.93-11.38s-0.32-9.53,0.28-12.52c0,0,1.23-4.2,1.3-5.77
				c0.1-2.01-0.07-3.28,0.42-0.11c0.47,3.02,0.09,5.15-0.06,6.87C168.34,57.57,168.27,58.43,168.28,58.86z"/>
			<path class="st2" d="M158.27,38.26c3.88-0.15,1.74,10.24,1.53,10.92c-0.18,0.56-0.73,8.39-0.64,11.19
				c0.05,1.71,0.56,5.23,1.77,6.61c0,0-5.65-6.46-4.31-15.01c1.35-8.55,2.36-13.07,0.24-13.65L158.27,38.26z"/>
		</g>
		<g>
			<path class="st1" d="M166.09,113.59c0,0-11.58-3.17-11.58-11.23c0-6.18,3.06-9.28,1.22-17.31c-1.81-7.92-10.4-13.6-6.11-17.93
				c4.28-4.33,15.29-2.47,18.96,7.42c0,0,6.11-34.01,20.18-17.31c0,0,3.67-4.33,9.78-3.09s5.5,9.28,3.67,9.89
				c0,0,16.51,0,7.34,12.99c0,0,5.33,1.97,3.06,8.04c-1.98,5.29-10.4,11.13-11.62,12.37c-2.52,2.55-9.17,23.5-28.16,18.03l-6.54-1.8
				L166.09,113.59z"/>
			<path class="st2" d="M172.57,115.38c0,0-0.34-0.65,0.89-0.65s12.23-1.86,14.68-4.95c0,0,4.81-5.21,6.73-8.66
				c1.44-2.59,6.03-7.85,7.46-9.45c0.99-1.11,9.05-8.48,7.22-10.96s-5.5,0.62-9.78,4.33c-4.28,3.71-8.56,9.89-8.56,8.04
				c0-1.86,3.06-6.18,3.06-6.18s7.52-7.47,8.55-8.38c1.27-1.12,8.25-6.25,5.52-8.94c-2.81-2.76-4.89-3.71-11.01,2.47
				c-6.11,6.18-11.62,14.84-12.23,14.84c-0.61,0,6.3-12.83,9.78-17.31c3.02-3.89,5.9-10.06,2.23-12.23
				c-1.9-1.12-4.67-1.99-12.62,10.37c-7.95,12.37-8.13,16.13-7.95,12.99c0.31-5.2,4.4-13.58,6.78-19.67c0,0,2.06-3.85-0.66-5.06
				c-5.51-2.46-9.17,12.99-10.4,19.17c0,0-4.28,15.46-7.95,13.6c0,0,5.5-9.89-0.61-16.7c-6.11-6.8-13.45-4.33-11.01-0.62
				c2.45,3.71,8.56,14.22,6.73,21.64c-1.83,7.42-3.23,11.95,1.83,16.08c0.71,0.58,1.36,1.08,1.95,1.53c3.5,2.64,4.76,3.07,2.27,2.7"
				/>
			<path class="st2" d="M202.2,91.85c-1.94,1.75-7.33,9.29-7.33,9.29c-1.74,3.21-6.73,8.65-6.73,8.65s-0.4,0.49-1.99,1.46
				c-1.17,0.71-5.07,2.08-6.18,2.24c-0.61,0.09,6.95-4.32,8.17-5.56c1.22-1.24,2.45-1.86,6.11-9.89s6.11-7.42,8.56-9.28
				c0,0,3.77-2.33,4.84-3.5c1.33-1.44,2.12-2.24,0.38,0.16c-1.81,2.49-4.61,5.19-4.61,5.19L202.2,91.85z"/>
			<path class="st2" d="M208.31,69.59c3.06,2.47-5.06,8.59-7.26,10.54c-1.27,1.12-6.8,6.77-6.8,6.77s-3.06,4.33-3.06,6.18
				c0,0,0-8.66,6.73-14.22c6.73-5.57,10.4-8.66,9.17-10.51L208.31,69.59z"/>
		</g>
		<g>
			<path class="st1" d="M15.2,101.14c0-0.63-0.15-1.64-0.45-3.03c-0.3-1.39-0.45-2.4-0.45-3.03c0-1.09,0.25-2,0.76-2.72
				c2.04-2.91,5.12-4.36,9.24-4.36c3.06,0,5.76,0.88,8.09,2.65c0.3,0.21,0.45,0.53,0.45,0.95c0,0.46-0.24,0.93-0.73,1.39
				c-0.49,0.46-1.07,0.76-1.75,0.88c-0.76,0.09-1.81-0.04-3.12-0.38c-1.44-0.38-2.46-0.57-3.06-0.57c-0.64,0-1.23,0.11-1.78,0.32
				c-1.15,0.51-1.72,1.58-1.72,3.22c0,0.38,0.06,1,0.19,1.86c0.13,0.86,0.19,1.51,0.19,1.93c0,0.84-0.13,1.52-0.38,2.02
				c0.84,0.46,1.92,0.69,3.23,0.69c0.42,0,1.04-0.03,1.87-0.09c0.82-0.06,1.43-0.09,1.81-0.09c2.28,0,3.78,0.91,4.5,2.72
				c-0.85,1.52-2.59,2.3-5.22,2.34c-2.89,0.04-4.69,0.45-5.42,1.23c-0.72,0.78-1.08,2.05-1.08,3.82c0-0.55,0.19,1.45,0.57,6
				c0.51,0.13,1.04,0.19,1.59,0.19c1.57,0,3.53-0.48,5.86-1.45c3.19-1.3,5.12-2.04,5.8-2.21c0.17-0.21,0.55-0.02,1.15,0.57
				c0.13,0.42,0.19,0.84,0.19,1.26c0,1.56-0.74,2.61-2.23,3.16c-2.29,0.84-4.57,1.71-6.82,2.59c-2.59,0.88-4.93,1.29-7.01,1.2
				c-0.81-0.08-1.62-0.16-2.42-0.22c-0.81-0.06-1.27-0.39-1.4-0.98c-0.43-1.26-0.64-2.78-0.64-4.55c0-0.59,0.03-1.48,0.1-2.68
				c0.06-1.2,0.1-2.12,0.1-2.75c0-1.52-0.15-2.84-0.45-3.98c-0.04-0.17-0.25-0.57-0.64-1.2c-0.34-0.51-0.51-0.93-0.51-1.26
				c0-0.29,0.09-0.55,0.28-0.76l0.97-0.88C15.08,104.55,15.2,103.29,15.2,101.14z"/>
			<path class="st1" d="M39.35,111.5c0-0.67-0.05-1.75-0.16-3.22c-0.11-1.47-0.16-2.57-0.16-3.28c0-1.6,0.19-2.91,0.57-3.92
				c0.38-0.88,1.19-1.33,2.42-1.33c1.4,0,2.27,0.55,2.61,1.64c0.08,0.25,0.13,0.55,0.13,0.88c0,0.42-0.12,1.06-0.35,1.93
				c-0.23,0.86-0.35,1.53-0.35,1.99c0.38,0.34,0.57,0.59,0.57,0.76c1.44-2.36,2.4-3.79,2.87-4.3c1.19-1.39,2.53-2.08,4.01-2.08
				c0.55,0,1.13,0.08,1.72,0.25c1.49,2.44,2.46,5.5,2.93,9.16c0.13,1.05,0.32,4.32,0.57,9.79c0.47,1.85,0.19,2.93-0.83,3.22
				c-1.15,0.34-2.04,0.51-2.68,0.51c-0.98,0-1.53-0.36-1.66-1.07c-0.21-1.6-0.4-4.21-0.57-7.83c-0.13-3.28-0.38-5.83-0.76-7.64
				c-1.19,1.31-2.29,3.31-3.31,6c-1.32,3.37-2.25,5.53-2.8,6.47c-0.55,0.95-1.38,1.42-2.49,1.42c-1.15,0-1.89-0.65-2.23-1.96
				c-0.21-0.93-0.3-2.15-0.25-3.66C39.29,112.49,39.35,111.25,39.35,111.5z M46.36,91.41c0.38,0.04,0.77,0.66,1.18,1.86
				c0.4,1.2,0.61,2.33,0.61,3.38c0,1.22-0.38,1.83-1.15,1.83c-0.93,0-2.23-1.33-3.89-3.98c-0.13-0.25-0.19-0.51-0.19-0.76
				c0-0.63,0.4-1.2,1.21-1.71C44.93,91.54,45.68,91.33,46.36,91.41z M54.96,91.35c0,0.88-0.3,2.02-0.89,3.41
				c-0.72,1.6-1.44,2.4-2.17,2.4c-0.64,0-1.15-0.74-1.53-2.21c-0.04-0.17-0.19-1.16-0.45-2.97c-0.17-1.14,0.74-1.71,2.74-1.71
				C54.2,90.27,54.96,90.63,54.96,91.35z M61.59,96.97c0.21,0.51-0.29,1.15-1.5,1.93c-1.21,0.78-2.2,1.06-2.96,0.85
				c-0.64-0.17-0.96-0.72-0.96-1.64c0-1.26,0.36-2.55,1.08-3.85c0.17-0.29,0.42-0.44,0.76-0.44c0.59,0,1.27,0.38,2.04,1.14
				C60.82,95.71,61.33,96.38,61.59,96.97z"/>
			<path class="st1" d="M63.37,98.61c-0.55-0.63-1.12-1.27-1.69-1.93c-0.57-0.65-0.86-1.23-0.86-1.74c0-0.38,0.17-0.76,0.51-1.14
				c2.34-2.91,5.84-5.01,10.51-6.32c4.16-0.88,8.3-1.77,12.43-2.65c0.25-0.04,0.51-0.06,0.76-0.06c0.81,0,1.6,0.28,2.39,0.85
				c0.79,0.57,1.18,1.23,1.18,1.99c0,1.35-0.98,2.25-2.93,2.72c-1.36,0.51-3.85,1.01-7.46,1.52c-3.1,0.42-5.48,1.07-7.14,1.96
				c-0.76,0.42-1.15,0.86-1.15,1.33c0,0.13,0.02,0.25,0.06,0.38c1.23,1.85,3.42,3.92,6.56,6.19c3.95,2.82,6.33,4.63,7.14,5.43
				c2.25,2.19,3.38,4.49,3.38,6.89c0,0.8-0.13,1.64-0.38,2.53c-0.76,2.86-2.59,5.08-5.48,6.63c-2.63,1.39-5.71,2.08-9.24,2.08
				c-3.27,0-6.24-0.61-8.92-1.83c-1.23-0.55-1.85-1.43-1.85-2.65c0-0.93,0.35-1.86,1.05-2.81s1.54-1.65,2.52-2.12
				c0.64-0.13,1.21,0.19,1.72,0.95c0.55,0.88,1.02,1.39,1.4,1.52c0.93,0,2.34,0.23,4.21,0.69c0.68,0.34,1.4,0.51,2.17,0.51
				c0.81,0,1.74-0.23,2.8-0.69c0.89-0.42,1.78-0.82,2.68-1.2c0.76-0.59,1.15-1.37,1.15-2.34c0-0.59-0.15-1.2-0.45-1.83
				c-1.61-2.06-4.45-4.53-8.51-7.39C67.88,103.2,65.03,100.72,63.37,98.61z"/>
			<path class="st1" d="M91.02,107.39c-0.04-2.86,0.81-5.25,2.55-7.17c1.74-1.92,3.97-2.87,6.69-2.87c2.89,0,5.45,1.08,7.68,3.25
				c2.23,2.17,3.32,4.71,3.28,7.61c-0.38,1.18-1.98,2.59-4.78,4.23c-3.48,2.06-5.42,3.28-5.8,3.66c-0.72,0.34-1.08,0.69-1.08,1.07
				c0,0.67,0.47,1.27,1.4,1.8c0.93,0.53,1.76,0.79,2.49,0.79c1.4,0,3.42-0.67,6.05-2.02c0.81,0.59,1.21,1.39,1.21,2.4
				c0,0.8-0.25,1.54-0.76,2.21c-0.51,0.67-1.17,1.07-1.98,1.2c-2.72,0.42-4.44,0.63-5.16,0.63c-1.44,0-2.74-0.25-3.89-0.76
				C93.87,121.21,91.24,115.86,91.02,107.39z M97.97,110.61c3.78-0.17,6.07-1.49,6.88-3.98c0.17-0.34,0.26-0.67,0.26-1.01
				c0-0.88-0.47-1.6-1.4-2.15c-0.93-0.55-1.98-0.82-3.12-0.82c-0.85,0-1.57,0.17-2.17,0.51c-1.23,0.63-1.85,1.96-1.85,3.98
				C96.57,109.37,97.03,110.53,97.97,110.61z"/>
			<path class="st1" d="M117.4,88.63c2.46-2.44,4.5-3.66,6.12-3.66c0.89,0,1.83,0.3,2.8,0.88c0.68,0.42,1.15,1.22,1.4,2.4
				c0.34,1.47,0.66,2.42,0.96,2.84c0.51,0.72,0.96,1.07,1.34,1.07c0.34,0,0.91-0.53,1.72-1.58c0.98-1.18,1.95-1.98,2.93-2.4
				c0.21-0.08,0.42-0.13,0.64-0.13c0.98,0,1.47,0.53,1.47,1.58c0,0.25-0.06,0.48-0.19,0.69c-1.7,2.57-3.06,4.23-4.08,4.99
				c-1.15,0.88-2.7,1.37-4.65,1.45c-1.87,0.08-3.12-0.91-3.76-2.97c-0.55-1.85-1.19-2.67-1.91-2.46c-1.23,0.42-2.36,1.39-3.38,2.91
				c-0.85,1.31-1.89,1.96-3.12,1.96c-0.47,0-1-0.06-1.59-0.19c-0.38-0.13-0.6-0.51-0.64-1.14c-0.04-0.63,0.08-1.16,0.38-1.58
				c0.51-0.8,1.04-1.62,1.59-2.46C115.81,90.3,116.47,89.56,117.4,88.63z M115.05,111.5c0-0.67-0.05-1.75-0.16-3.22
				c-0.11-1.47-0.16-2.57-0.16-3.28c0-1.6,0.19-2.91,0.57-3.92c0.38-0.88,1.19-1.33,2.42-1.33c1.4,0,2.27,0.55,2.61,1.64
				c0.08,0.25,0.13,0.55,0.13,0.88c0,0.42-0.12,1.06-0.35,1.93c-0.23,0.86-0.35,1.53-0.35,1.99c0.38,0.34,0.57,0.59,0.57,0.76
				c1.44-2.36,2.4-3.79,2.87-4.3c1.19-1.39,2.53-2.08,4.01-2.08c0.55,0,1.13,0.08,1.72,0.25c1.49,2.44,2.46,5.5,2.93,9.16
				c0.13,1.05,0.32,4.32,0.57,9.79c0.47,1.85,0.19,2.93-0.83,3.22c-1.15,0.34-2.04,0.51-2.68,0.51c-0.98,0-1.53-0.36-1.66-1.07
				c-0.21-1.6-0.4-4.21-0.57-7.83c-0.13-3.28-0.38-5.83-0.76-7.64c-1.19,1.31-2.29,3.31-3.31,6c-1.32,3.37-2.25,5.53-2.8,6.47
				c-0.55,0.95-1.38,1.42-2.49,1.42c-1.15,0-1.89-0.65-2.23-1.96c-0.21-0.93-0.3-2.15-0.25-3.66
				C114.98,112.49,115.05,111.25,115.05,111.5z"/>
			<path class="st1" d="M152.67,126.56c-0.36-0.23-0.73-0.71-1.12-1.42c-0.34-0.59-0.66-0.88-0.96-0.88
				c-2.25-0.38-4.52-0.76-6.82-1.14c-2.51-0.63-4.29-1.85-5.35-3.66c-0.68-0.88-1.02-2.06-1.02-3.54c0-2.15,0.53-3.92,1.59-5.31
				c2.55-3.41,6.29-5.12,11.21-5.12c2.12,0,3.14,0.06,3.06,0.19c0.34-0.5,0.51-1.2,0.51-2.12c0-1.08-0.32-1.69-0.96-1.83
				c-0.64-0.15-1.27-0.22-1.91-0.22c-1.11,0-2.33,0.26-3.66,0.77c-1.34,0.51-2.64,1-3.92,1.45c-0.21,0.08-0.4,0.12-0.57,0.12
				c-0.68,0-1.23-0.48-1.66-1.45c-0.34-0.76-0.51-1.58-0.51-2.46c0-0.55,0.06-0.88,0.19-1.01c2.8-1.9,5.97-2.84,9.49-2.84
				c3.7,0,6.18,1.31,7.46,3.92c0.68,1.43,1.02,2.99,1.02,4.67c0,1.39-0.28,3.35-0.83,5.87c-0.64,2.78-1.02,4.8-1.15,6.06
				c-0.21,3.16-0.43,5.31-0.64,6.44c-0.51,2.57-1.32,3.85-2.42,3.85C153.38,126.91,153.03,126.8,152.67,126.56z M151.49,118.89
				c0.13-0.59,0.4-1.64,0.83-3.16c0.38-1.18,0.57-2.15,0.57-2.91c0-0.88-0.19-1.77-0.57-2.65c-2.17,0.46-4.31,0.91-6.44,1.33
				c-2.51,0.72-3.78,2.19-3.82,4.42c-0.04,0.97,0.89,1.79,2.8,2.46c1.66,0.63,3.31,0.95,4.97,0.95
				C150.81,119.33,151.36,119.18,151.49,118.89z M150.09,114.28c0,0.55-0.19,1.16-0.57,1.83c-0.38,0.67-0.79,1.01-1.21,1.01
				c-0.68,0-1.22-0.29-1.62-0.88c-0.4-0.59-0.56-1.14-0.48-1.64c0.17-0.88,0.89-1.33,2.17-1.33
				C149.52,113.27,150.09,113.61,150.09,114.28z"/>
			<path class="st1" d="M173.16,96.97c1.61,0.63,3.23,1.28,4.84,1.96c1.74,0.84,2.93,1.9,3.57,3.16c0.13,0.17,0.19,0.4,0.19,0.69
				c0,1.18-0.4,2.02-1.21,2.53c-0.38,0.21-0.81,0.32-1.27,0.32c-0.72,0-2.08-0.6-4.08-1.8c-2-1.2-3.57-1.8-4.72-1.8
				c-0.85,0-1.68,0.23-2.49,0.7c-0.38,0.25-0.57,0.61-0.57,1.08c0,0.59,0.35,1.27,1.05,2.03c0.7,0.76,1.33,1.25,1.88,1.46
				c4.42,1.56,7.77,3.4,10.07,5.51c0.76,0.72,1.15,1.71,1.15,2.98c0,1.48-0.46,2.98-1.37,4.5c-0.91,1.52-2.4,2.8-4.46,3.83
				c-2.06,1.03-4.17,1.55-6.34,1.55c-3.82,0-6.5-1.58-8.03-4.74c-0.13-0.25-0.19-0.55-0.19-0.88c0-0.72,0.34-1.38,1.02-1.99
				c0.68-0.61,1.4-0.94,2.17-0.98c0.59-0.08,1.13,0.3,1.59,1.14c0.55,0.97,1,1.54,1.34,1.71c0.76,0.38,1.63,0.57,2.61,0.57
				c1.49,0,2.79-0.39,3.92-1.17c1.13-0.78,1.69-1.8,1.69-3.06c0-0.97-0.98-1.9-2.93-2.78c-2.17-0.93-4.31-1.83-6.44-2.72
				c-2.29-1.18-3.89-2.67-4.78-4.49c-0.25-0.55-0.38-1.09-0.38-1.64c0-1.9,1.21-3.73,3.63-5.5c2.29-1.68,4.55-2.53,6.75-2.53
				C172.05,96.59,172.65,96.72,173.16,96.97z"/>
		</g>
	</g>
</g>
</svg>
