<?xml version="1.0" encoding="utf-8"?>
<!-- Generator: Adobe Illustrator 24.0.0, SVG Export Plug-In . SVG Version: 6.00 Build 0)  -->
<svg version="1.1" id="Capa_1" xmlns="http://www.w3.org/2000/svg" xmlns:xlink="http://www.w3.org/1999/xlink" x="0px" y="0px"
	 viewBox="0 0 214.08 106.34" style="enable-background:new 0 0 214.08 106.34;" xml:space="preserve">
<style type="text/css">
	.st0{fill:#4E4D4D;}
	.st1{fill:#FFFFFF;}
</style>
<g>
	<g>
		<g>
			<path class="st0" d="M150.52,71.29c0,0-10.44,5.11-15.61-0.78c-3.96-4.52-3.72-8.75-10.2-13.45c-6.39-4.64-16.26-3.28-15.93-9.19
				s9.52-11.62,18.52-6.73c0,0-17.34-28.8,3.57-25.61c0,0-0.11-5.52,5.13-8.54c5.23-3.02,9.94,3.25,9,4.88
				c0,0,11.99-10.59,13.65,4.79c0,0,5.13-1.97,7.37,3.92c1.95,5.14-0.42,14.81-0.52,16.5c-0.2,3.48,8.39,23.07-8.91,31.26
				l-5.91,2.88L150.52,71.29z"/>
			<path class="st1" d="M156.37,68.44c0,0-0.66-0.26,0.23-1.05c0.89-0.78,7.41-9.49,7.2-13.32c0,0-0.05-7.45-0.37-10.36
				c0,0-0.71-9.03-0.61-11.49c0.05-1.28,1.12-12.22-1.8-12.85c-2.92-0.63-3.6,3.98-4.33,9.44c-0.73,5.46,0.12,12.73-1.07,11.37
				s-1.68-4.81-1.74-6.48c-0.09-2.75,0.43-10.42,0.63-10.98c0.13-0.38,2.31-10.86-1.5-10.71c-3.81,0.15-5.93,0.42-6.41,8.87
				s1.07,18.31,0.62,18.7c-0.44,0.39-4.72-13.48-3.98-18.94s-1.7-10.88-5.3-10.56c-1.9,0.17-5.58,1.72-3.43,15.87
				c2.15,14.15,4.5,16.96,2.54,14.6c-3.26-3.94-6.44-12.76-6.06-19.51c0,0,0.24-4.22-5.34-2.5c-5.58,1.72,1.65,15.38,4.73,20.69
				c0,0,6.79,14.05,2.94,15.05c0,0-2.34-10.77-11.14-11.82s-12.54,5.46-8.39,6.61c4.15,1.14,15.33,4.91,18.75,11.52
				s5.31,10.81,11.63,10.58c0.88-0.03,1.68-0.08,2.39-0.13c4.23-0.31,5.43-0.81,3.38,0.52"/>
			<path class="st1" d="M162.82,32.22c0.08,2.44,0.1,5.55,0.26,6.48c0.52,3.04,1.01,15.66,1.01,15.66s-0.1,1.69-0.59,2.93
				c-0.49,1.24-2.41,5.34-2.81,4.89c-0.4-0.45,2.11-7.48,2.21-9.17c0.1-1.69,0.59-2.93-1.9-11.16s-0.31-9.35,0.28-12.28
				c0,0,1.2-4.12,1.28-5.66c0.09-1.97-0.07-3.21,0.42-0.1c0.46,2.96,0.09,5.05-0.06,6.73C162.88,30.95,162.81,31.8,162.82,32.22z"/>
			<path class="st1" d="M153.01,12.01c3.81-0.15,1.71,10.05,1.5,10.71c-0.17,0.55-0.71,8.23-0.63,10.98
				c0.05,1.67,0.55,5.13,1.74,6.48c0,0-5.54-6.33-4.22-14.72s2.31-12.82,0.24-13.39L153.01,12.01z"/>
		</g>
		<g>
			<path class="st0" d="M160.67,85.91c0,0-11.36-3.11-11.36-11.02c0-6.07,3-9.1,1.2-16.98c-1.77-7.77-10.2-13.34-6-17.59
				c4.2-4.25,14.99-2.43,18.59,7.28c0,0,6-33.36,19.79-16.98c0,0,3.6-4.25,9.6-3.03c6,1.21,5.4,9.1,3.6,9.7c0,0,16.19,0,7.2,12.74
				c0,0,5.22,1.94,3,7.88c-1.94,5.19-10.2,10.92-11.4,12.13c-2.47,2.5-9,23.05-27.62,17.69l-6.42-1.77L160.67,85.91z"/>
			<path class="st1" d="M167.03,87.66c0,0-0.33-0.64,0.87-0.64c1.2,0,12-1.82,14.39-4.85c0,0,4.72-5.11,6.6-8.49
				c1.41-2.54,5.92-7.7,7.32-9.27c0.97-1.09,8.88-8.32,7.08-10.75s-5.4,0.61-9.6,4.25c-4.2,3.64-8.4,9.7-8.4,7.88
				c0-1.82,3-6.07,3-6.07s7.38-7.33,8.38-8.22c1.24-1.1,8.09-6.13,5.41-8.77c-2.75-2.71-4.8-3.64-10.8,2.43
				c-6,6.07-11.4,14.56-12,14.56s6.18-12.58,9.6-16.98c2.96-3.82,5.79-9.87,2.18-11.99c-1.87-1.1-4.58-1.96-12.38,10.17
				s-7.98,15.82-7.8,12.74c0.3-5.1,4.31-13.32,6.65-19.29c0,0,2.02-3.77-0.65-4.97c-5.4-2.41-9,12.74-10.2,18.8
				c0,0-4.2,15.16-7.8,13.34c0,0,5.4-9.7-0.6-16.38c-6-6.67-13.2-4.25-10.8-0.61c2.4,3.64,8.4,13.95,6.6,21.23
				s-3.17,11.72,1.8,15.77c0.69,0.57,1.33,1.06,1.91,1.5c3.43,2.59,4.67,3.02,2.23,2.65"/>
			<path class="st1" d="M196.09,64.58c-1.9,1.72-7.19,9.11-7.19,9.11c-1.71,3.15-6.6,8.48-6.6,8.48s-0.39,0.48-1.95,1.43
				c-1.15,0.7-4.98,2.04-6.07,2.2c-0.59,0.09,6.82-4.24,8.02-5.45c1.2-1.21,2.4-1.82,6-9.7c3.6-7.88,6-7.28,8.4-9.1
				c0,0,3.69-2.29,4.75-3.43c1.3-1.41,2.08-2.2,0.37,0.16c-1.77,2.45-4.52,5.09-4.52,5.09L196.09,64.58z"/>
			<path class="st1" d="M202.09,42.74c3,2.43-4.96,8.43-7.12,10.34c-1.24,1.1-6.67,6.64-6.67,6.64s-3,4.25-3,6.07
				c0,0,0-8.49,6.6-13.95c6.6-5.46,10.2-8.49,9-10.31L202.09,42.74z"/>
		</g>
		<g>
			<path class="st0" d="M12.67,73.69c0-0.62-0.15-1.61-0.44-2.97c-0.29-1.36-0.44-2.35-0.44-2.97c0-1.07,0.25-1.96,0.75-2.66
				c2-2.85,5.02-4.28,9.06-4.28c3,0,5.65,0.87,7.94,2.6c0.29,0.21,0.44,0.52,0.44,0.93c0,0.46-0.24,0.91-0.72,1.36
				c-0.48,0.45-1.05,0.74-1.72,0.87c-0.75,0.08-1.77-0.04-3.06-0.37c-1.42-0.37-2.42-0.56-3-0.56c-0.62,0-1.21,0.1-1.75,0.31
				c-1.13,0.5-1.69,1.55-1.69,3.16c0,0.37,0.06,0.98,0.19,1.83c0.12,0.85,0.19,1.48,0.19,1.89c0,0.83-0.13,1.49-0.38,1.98
				c0.83,0.46,1.88,0.68,3.17,0.68c0.41,0,1.02-0.03,1.83-0.09c0.81-0.06,1.4-0.09,1.77-0.09c2.24,0,3.71,0.89,4.41,2.66
				c-0.83,1.49-2.54,2.25-5.12,2.29c-2.83,0.04-4.6,0.44-5.31,1.21c-0.71,0.76-1.06,2.01-1.06,3.75c0-0.54,0.19,1.43,0.56,5.89
				c0.5,0.12,1.02,0.19,1.56,0.19c1.54,0,3.46-0.47,5.75-1.43c3.13-1.28,5.02-2,5.69-2.17c0.17-0.21,0.54-0.02,1.12,0.56
				c0.13,0.41,0.19,0.83,0.19,1.24c0,1.53-0.73,2.56-2.19,3.1c-2.25,0.83-4.48,1.67-6.69,2.54c-2.54,0.87-4.83,1.26-6.87,1.18
				c-0.79-0.08-1.58-0.15-2.38-0.22c-0.79-0.06-1.25-0.38-1.37-0.96c-0.42-1.24-0.63-2.73-0.63-4.46c0-0.58,0.03-1.46,0.09-2.63
				c0.06-1.18,0.09-2.08,0.09-2.7c0-1.49-0.15-2.79-0.44-3.9c-0.04-0.16-0.25-0.56-0.62-1.18c-0.33-0.5-0.5-0.91-0.5-1.24
				c0-0.29,0.09-0.54,0.27-0.74l0.95-0.87C12.56,77.03,12.67,75.8,12.67,73.69z"/>
			<path class="st0" d="M36.36,83.85c0-0.66-0.05-1.71-0.16-3.16c-0.1-1.45-0.16-2.52-0.16-3.22c0-1.57,0.19-2.85,0.56-3.84
				c0.38-0.87,1.17-1.3,2.38-1.3c1.37,0,2.23,0.54,2.56,1.61c0.08,0.25,0.13,0.54,0.13,0.87c0,0.41-0.12,1.04-0.34,1.89
				c-0.23,0.85-0.34,1.5-0.34,1.95c0.38,0.33,0.56,0.58,0.56,0.74c1.42-2.31,2.35-3.72,2.81-4.21c1.17-1.36,2.48-2.04,3.94-2.04
				c0.54,0,1.1,0.08,1.69,0.25c1.46,2.4,2.42,5.39,2.87,8.98c0.13,1.03,0.31,4.23,0.56,9.6c0.46,1.82,0.19,2.87-0.81,3.16
				c-1.13,0.33-2,0.5-2.63,0.5c-0.96,0-1.5-0.35-1.63-1.05c-0.21-1.57-0.4-4.13-0.56-7.68c-0.12-3.22-0.38-5.72-0.75-7.5
				c-1.17,1.28-2.25,3.24-3.25,5.89c-1.29,3.31-2.21,5.42-2.75,6.35c-0.54,0.93-1.35,1.39-2.44,1.39c-1.13,0-1.85-0.64-2.19-1.92
				c-0.21-0.91-0.29-2.11-0.25-3.59C36.3,84.82,36.36,83.6,36.36,83.85z M43.23,64.15c0.38,0.04,0.76,0.65,1.16,1.83
				c0.4,1.18,0.59,2.28,0.59,3.31c0,1.2-0.37,1.8-1.12,1.8c-0.92,0-2.19-1.3-3.81-3.9c-0.12-0.25-0.19-0.5-0.19-0.74
				c0-0.62,0.4-1.18,1.19-1.67C41.84,64.27,42.57,64.06,43.23,64.15z M51.67,64.08c0,0.87-0.29,1.98-0.88,3.35
				c-0.71,1.57-1.42,2.35-2.12,2.35c-0.62,0-1.13-0.72-1.5-2.17c-0.04-0.16-0.19-1.14-0.44-2.91c-0.17-1.12,0.73-1.67,2.69-1.67
				C50.92,63.03,51.67,63.38,51.67,64.08z M58.17,69.6c0.21,0.5-0.28,1.13-1.47,1.89c-1.19,0.76-2.16,1.04-2.91,0.84
				c-0.62-0.16-0.94-0.7-0.94-1.61c0-1.24,0.35-2.5,1.06-3.78c0.17-0.29,0.42-0.43,0.75-0.43c0.58,0,1.25,0.37,2,1.12
				C57.42,68.36,57.92,69.02,58.17,69.6z"/>
			<path class="st0" d="M59.92,71.21c-0.54-0.62-1.09-1.25-1.66-1.89c-0.56-0.64-0.84-1.21-0.84-1.7c0-0.37,0.17-0.74,0.5-1.12
				c2.29-2.85,5.73-4.92,10.31-6.2c4.08-0.87,8.15-1.73,12.19-2.6c0.25-0.04,0.5-0.06,0.75-0.06c0.79,0,1.57,0.28,2.34,0.84
				c0.77,0.56,1.16,1.21,1.16,1.95c0,1.32-0.96,2.21-2.87,2.66c-1.33,0.5-3.77,0.99-7.31,1.49c-3.04,0.41-5.37,1.05-7,1.92
				c-0.75,0.41-1.13,0.85-1.13,1.3c0,0.12,0.02,0.25,0.06,0.37c1.21,1.82,3.35,3.84,6.44,6.07c3.87,2.77,6.21,4.54,7,5.33
				c2.21,2.15,3.31,4.4,3.31,6.75c0,0.79-0.12,1.61-0.38,2.48c-0.75,2.81-2.54,4.98-5.37,6.51c-2.58,1.36-5.6,2.04-9.06,2.04
				c-3.21,0-6.13-0.6-8.75-1.8c-1.21-0.54-1.81-1.4-1.81-2.6c0-0.91,0.34-1.83,1.03-2.76c0.69-0.93,1.51-1.62,2.47-2.08
				c0.63-0.12,1.19,0.19,1.69,0.93c0.54,0.87,1,1.36,1.38,1.49c0.92,0,2.29,0.23,4.12,0.68c0.67,0.33,1.38,0.5,2.13,0.5
				c0.79,0,1.71-0.23,2.75-0.68c0.88-0.41,1.75-0.81,2.63-1.18c0.75-0.58,1.13-1.34,1.13-2.29c0-0.58-0.15-1.18-0.44-1.8
				c-1.58-2.02-4.37-4.44-8.34-7.25C64.35,75.71,61.54,73.28,59.92,71.21z"/>
			<path class="st0" d="M87.04,79.82c-0.04-2.81,0.79-5.15,2.5-7.03c1.71-1.88,3.9-2.82,6.56-2.82c2.83,0,5.34,1.06,7.53,3.19
				c2.19,2.13,3.26,4.62,3.22,7.47c-0.38,1.16-1.94,2.54-4.69,4.15c-3.42,2.02-5.31,3.22-5.69,3.59c-0.71,0.33-1.06,0.68-1.06,1.05
				c0,0.66,0.46,1.25,1.37,1.77c0.92,0.52,1.73,0.77,2.44,0.77c1.37,0,3.35-0.66,5.94-1.98c0.79,0.58,1.19,1.36,1.19,2.35
				c0,0.79-0.25,1.51-0.75,2.17c-0.5,0.66-1.15,1.05-1.94,1.18c-2.67,0.41-4.35,0.62-5.06,0.62c-1.42,0-2.69-0.25-3.81-0.74
				C89.83,93.37,87.25,88.13,87.04,79.82z M93.86,82.98c3.71-0.16,5.96-1.47,6.75-3.9c0.17-0.33,0.25-0.66,0.25-0.99
				c0-0.87-0.46-1.57-1.38-2.11c-0.92-0.54-1.94-0.81-3.06-0.81c-0.83,0-1.54,0.17-2.12,0.5c-1.21,0.62-1.81,1.92-1.81,3.9
				C92.48,81.76,92.94,82.9,93.86,82.98z"/>
			<path class="st0" d="M112.92,61.42c2.42-2.4,4.42-3.59,6-3.59c0.87,0,1.79,0.29,2.75,0.87c0.67,0.41,1.13,1.2,1.38,2.35
				c0.33,1.45,0.65,2.38,0.94,2.79c0.5,0.7,0.94,1.05,1.31,1.05c0.33,0,0.9-0.52,1.69-1.55c0.96-1.16,1.92-1.94,2.87-2.35
				c0.21-0.08,0.42-0.12,0.62-0.12c0.96,0,1.44,0.52,1.44,1.55c0,0.25-0.06,0.48-0.19,0.68c-1.67,2.52-3,4.15-4,4.89
				c-1.13,0.87-2.65,1.34-4.56,1.43c-1.83,0.08-3.06-0.89-3.69-2.91c-0.54-1.82-1.17-2.62-1.88-2.42c-1.21,0.41-2.31,1.36-3.31,2.85
				c-0.83,1.28-1.85,1.92-3.06,1.92c-0.46,0-0.98-0.06-1.56-0.19c-0.38-0.12-0.58-0.5-0.63-1.12c-0.04-0.62,0.08-1.14,0.38-1.55
				c0.5-0.78,1.02-1.59,1.56-2.42C111.36,63.05,112,62.33,112.92,61.42z M110.61,83.85c0-0.66-0.05-1.71-0.16-3.16
				c-0.1-1.45-0.16-2.52-0.16-3.22c0-1.57,0.19-2.85,0.56-3.84c0.38-0.87,1.17-1.3,2.38-1.3c1.37,0,2.23,0.54,2.56,1.61
				c0.08,0.25,0.13,0.54,0.13,0.87c0,0.41-0.12,1.04-0.34,1.89c-0.23,0.85-0.34,1.5-0.34,1.95c0.38,0.33,0.56,0.58,0.56,0.74
				c1.42-2.31,2.35-3.72,2.81-4.21c1.17-1.36,2.48-2.04,3.94-2.04c0.54,0,1.1,0.08,1.69,0.25c1.46,2.4,2.42,5.39,2.87,8.98
				c0.13,1.03,0.31,4.23,0.56,9.6c0.46,1.82,0.19,2.87-0.81,3.16c-1.13,0.33-2,0.5-2.63,0.5c-0.96,0-1.5-0.35-1.63-1.05
				c-0.21-1.57-0.4-4.13-0.56-7.68c-0.12-3.22-0.38-5.72-0.75-7.5c-1.17,1.28-2.25,3.24-3.25,5.89c-1.29,3.31-2.21,5.42-2.75,6.35
				c-0.54,0.93-1.35,1.39-2.44,1.39c-1.13,0-1.85-0.64-2.19-1.92c-0.21-0.91-0.29-2.11-0.25-3.59
				C110.54,84.82,110.61,83.6,110.61,83.85z"/>
			<path class="st0" d="M147.51,98.63c-0.35-0.23-0.72-0.69-1.09-1.39c-0.33-0.58-0.65-0.87-0.94-0.87
				c-2.21-0.37-4.44-0.74-6.69-1.12c-2.46-0.62-4.21-1.82-5.25-3.59c-0.67-0.87-1-2.02-1-3.47c0-2.11,0.52-3.84,1.56-5.2
				c2.5-3.35,6.17-5.02,11-5.02c2.08,0,3.08,0.06,3,0.19c0.33-0.49,0.5-1.18,0.5-2.08c0-1.06-0.31-1.66-0.94-1.8
				c-0.63-0.14-1.25-0.21-1.88-0.21c-1.08,0-2.28,0.25-3.59,0.75c-1.31,0.5-2.59,0.98-3.84,1.42c-0.21,0.08-0.4,0.12-0.56,0.12
				c-0.67,0-1.21-0.47-1.62-1.43c-0.33-0.74-0.5-1.55-0.5-2.42c0-0.54,0.06-0.87,0.19-0.99c2.75-1.86,5.85-2.79,9.31-2.79
				c3.63,0,6.06,1.28,7.31,3.84c0.67,1.4,1,2.93,1,4.59c0,1.36-0.27,3.28-0.81,5.76c-0.62,2.73-1,4.71-1.13,5.95
				c-0.21,3.1-0.42,5.2-0.62,6.32c-0.5,2.52-1.29,3.78-2.38,3.78C148.21,98.97,147.86,98.85,147.51,98.63z M146.35,91.1
				c0.12-0.58,0.4-1.61,0.81-3.1c0.38-1.16,0.56-2.11,0.56-2.85c0-0.87-0.19-1.73-0.56-2.6c-2.12,0.45-4.23,0.89-6.31,1.3
				c-2.46,0.7-3.71,2.15-3.75,4.34c-0.04,0.95,0.87,1.76,2.75,2.42c1.63,0.62,3.25,0.93,4.88,0.93
				C145.69,91.53,146.23,91.39,146.35,91.1z M144.98,86.58c0,0.54-0.19,1.14-0.56,1.8c-0.38,0.66-0.77,0.99-1.19,0.99
				c-0.67,0-1.2-0.29-1.59-0.87c-0.4-0.58-0.55-1.12-0.47-1.61c0.17-0.87,0.88-1.3,2.12-1.3C144.42,85.59,144.98,85.92,144.98,86.58
				z"/>
			<path class="st0" d="M167.6,69.6c1.58,0.62,3.17,1.26,4.75,1.92c1.71,0.83,2.87,1.86,3.5,3.1c0.12,0.17,0.19,0.39,0.19,0.68
				c0,1.16-0.4,1.98-1.19,2.48c-0.38,0.21-0.79,0.31-1.25,0.31c-0.71,0-2.04-0.59-4-1.77c-1.96-1.18-3.5-1.77-4.62-1.77
				c-0.83,0-1.65,0.23-2.44,0.68c-0.38,0.25-0.56,0.6-0.56,1.06c0,0.58,0.34,1.24,1.03,1.99c0.69,0.75,1.3,1.22,1.84,1.43
				c4.33,1.53,7.63,3.34,9.88,5.41c0.75,0.7,1.13,1.68,1.13,2.92c0,1.45-0.45,2.92-1.34,4.41c-0.9,1.49-2.35,2.74-4.37,3.76
				c-2.02,1.01-4.09,1.52-6.22,1.52c-3.75,0-6.38-1.55-7.88-4.65c-0.12-0.25-0.19-0.54-0.19-0.87c0-0.7,0.33-1.35,1-1.95
				c0.67-0.6,1.37-0.92,2.12-0.96c0.58-0.08,1.1,0.29,1.56,1.12c0.54,0.95,0.98,1.51,1.31,1.67c0.75,0.37,1.6,0.56,2.56,0.56
				c1.46,0,2.74-0.38,3.84-1.15c1.1-0.76,1.66-1.77,1.66-3.01c0-0.95-0.96-1.86-2.87-2.73c-2.13-0.91-4.23-1.8-6.31-2.66
				c-2.25-1.16-3.81-2.62-4.69-4.4c-0.25-0.54-0.38-1.07-0.38-1.61c0-1.86,1.19-3.66,3.56-5.39c2.25-1.65,4.46-2.48,6.62-2.48
				C166.52,69.23,167.1,69.35,167.6,69.6z"/>
		</g>
	</g>
</g>
</svg>
