<?xml version="1.0" encoding="utf-8"?>
<!-- Generator: Adobe Illustrator 24.0.0, SVG Export Plug-In . SVG Version: 6.00 Build 0)  -->
<svg version="1.1" id="Capa_1" xmlns="http://www.w3.org/2000/svg" xmlns:xlink="http://www.w3.org/1999/xlink" x="0px" y="0px"
	 viewBox="0 0 273.3 158.65" style="enable-background:new 0 0 273.3 158.65;" xml:space="preserve">
<style type="text/css">
	.st0{fill:#7A3815;}
	.st1{fill:#FDDBC0;}
	.st2{fill:#F9C2A1;}
	.st3{fill:#F9C2A0;}
	.st4{fill:#FFFFFF;}
</style>
<g>
	<g>
		<path class="st0" d="M185.13,96.17c0,0-10.85,4.97-16.21-0.76c-4.11-4.4-3.86-8.5-10.59-13.07c-6.64-4.51-16.89-3.19-16.54-8.94
			s9.89-11.29,19.23-6.54c0,0-18.01-28,3.71-24.89c0,0-0.11-5.37,5.32-8.3c5.44-2.93,10.32,3.16,9.35,4.75
			c0,0,12.45-10.3,14.17,4.66c0,0,5.33-1.92,7.65,3.81c2.03,5-0.44,14.4-0.54,16.04c-0.21,3.39,8.71,22.43-9.25,30.38l-6.14,2.8
			L185.13,96.17z"/>
		<path class="st1" d="M191.21,93.4c0,0-0.69-0.25,0.24-1.02c0.92-0.76,7.69-9.22,7.48-12.94c0,0-0.05-7.24-0.38-10.07
			c0,0-0.74-8.77-0.63-11.17c0.05-1.25,1.16-11.88-1.87-12.49c-3.03-0.61-3.74,3.87-4.5,9.18s0.12,12.37-1.11,11.05
			c-1.23-1.32-1.75-4.68-1.81-6.3c-0.09-2.67,0.45-10.13,0.65-10.67c0.13-0.37,2.39-10.56-1.56-10.41
			c-3.95,0.15-6.16,0.41-6.66,8.62c-0.5,8.21,1.11,17.8,0.65,18.18c-0.46,0.38-4.9-13.1-4.14-18.41s-1.77-10.58-5.51-10.26
			c-1.97,0.17-5.8,1.67-3.57,15.42s4.67,16.49,2.64,14.19c-3.38-3.83-6.69-12.4-6.29-18.97c0,0,0.25-4.1-5.55-2.43
			s1.72,14.95,4.91,20.11c0,0,7.05,13.66,3.05,14.63c0,0-2.43-10.47-11.57-11.49c-9.14-1.02-13.03,5.31-8.71,6.42
			s15.92,4.77,19.47,11.19c3.55,6.42,5.52,10.51,12.08,10.29c0.92-0.03,1.74-0.08,2.48-0.13c4.4-0.3,5.64-0.78,3.51,0.51"/>
		<path class="st2" d="M197.91,58.2c0.08,2.38,0.1,5.39,0.27,6.3c0.54,2.96,1.05,15.22,1.05,15.22s-0.1,1.64-0.61,2.84
			c-0.51,1.2-2.51,5.19-2.92,4.75c-0.41-0.44,2.19-7.27,2.29-8.91c0.1-1.64,0.61-2.84-1.97-10.85s-0.32-9.09,0.29-11.93
			c0,0,1.25-4.01,1.33-5.51c0.1-1.91-0.07-3.12,0.43-0.1c0.48,2.88,0.09,4.91-0.06,6.55C197.97,56.96,197.89,57.78,197.91,58.2z"/>
		<path class="st3" d="M187.71,38.55c3.95-0.15,1.77,9.77,1.56,10.41c-0.18,0.54-0.74,8-0.65,10.67c0.06,1.63,0.57,4.98,1.81,6.3
			c0,0-5.76-6.16-4.39-14.31s2.4-12.46,0.25-13.02L187.71,38.55z"/>
	</g>
	<g>
		<path class="st0" d="M195.67,110.38c0,0-11.8-3.02-11.8-10.71c0-5.9,3.11-8.84,1.25-16.51c-1.84-7.56-10.59-12.97-6.23-17.1
			c4.36-4.13,15.57-2.36,19.31,7.07c0,0,6.23-32.43,20.55-16.51c0,0,3.74-4.13,9.97-2.95c6.23,1.18,5.61,8.84,3.74,9.43
			c0,0,16.82,0,7.47,12.38c0,0,5.43,1.88,3.11,7.66c-2.02,5.05-10.59,10.61-11.83,11.79c-2.57,2.43-9.34,22.4-28.68,17.19
			l-6.67-1.72L195.67,110.38z"/>
		<path class="st1" d="M202.28,112.08c0,0-0.34-0.62,0.9-0.62s12.46-1.77,14.95-4.72c0,0,4.9-4.97,6.85-8.25
			c1.47-2.47,6.14-7.48,7.6-9.01c1-1.06,9.22-8.09,7.35-10.45c-1.87-2.36-5.61,0.59-9.97,4.13c-4.36,3.54-8.72,9.43-8.72,7.66
			s3.11-5.9,3.11-5.9s7.66-7.12,8.71-7.99c1.29-1.07,8.4-5.96,5.62-8.52c-2.86-2.63-4.98-3.54-11.21,2.36
			c-6.23,5.9-11.83,14.15-12.46,14.15c-0.62,0,6.42-12.23,9.97-16.51c3.08-3.71,6.01-9.59,2.27-11.66
			c-1.94-1.07-4.76-1.9-12.86,9.89s-8.29,15.38-8.1,12.38c0.31-4.96,4.48-12.95,6.9-18.76c0,0,2.1-3.67-0.67-4.83
			c-5.61-2.34-9.34,12.38-10.59,18.28c0,0-4.36,14.74-8.1,12.97c0,0,5.61-9.43-0.62-15.92c-6.23-6.49-13.7-4.13-11.21-0.59
			c2.49,3.54,8.72,13.56,6.85,20.64s-3.29,11.4,1.87,15.33c0.72,0.55,1.38,1.03,1.98,1.46c3.56,2.52,4.85,2.93,2.31,2.58"/>
		<path class="st2" d="M232.45,89.65c-1.98,1.67-7.47,8.85-7.47,8.85c-1.78,3.06-6.86,8.24-6.86,8.24s-0.41,0.47-2.02,1.39
			c-1.19,0.68-5.17,1.99-6.3,2.14c-0.62,0.08,7.08-4.12,8.32-5.3c1.25-1.18,2.49-1.77,6.23-9.43c3.74-7.66,6.23-7.07,8.72-8.84
			c0,0,3.84-2.22,4.93-3.33c1.35-1.37,2.16-2.14,0.38,0.15c-1.84,2.38-4.69,4.95-4.69,4.95L232.45,89.65z"/>
		<path class="st3" d="M238.68,68.42c3.11,2.36-5.15,8.19-7.4,10.05c-1.29,1.07-6.93,6.46-6.93,6.46s-3.11,4.13-3.11,5.9
			c0,0,0-8.25,6.85-13.56c6.85-5.31,10.59-8.25,9.34-10.02L238.68,68.42z"/>
	</g>
	<g>
		<path class="st4" d="M41.98,98.5c0-0.6-0.15-1.57-0.45-2.89c-0.3-1.33-0.45-2.29-0.45-2.89c0-1.04,0.26-1.91,0.78-2.59
			c2.08-2.77,5.21-4.16,9.41-4.16c3.12,0,5.86,0.84,8.24,2.53c0.3,0.2,0.45,0.5,0.45,0.9c0,0.44-0.25,0.88-0.75,1.33
			c-0.5,0.44-1.09,0.72-1.78,0.84c-0.78,0.08-1.84-0.04-3.18-0.36c-1.47-0.36-2.51-0.54-3.12-0.54c-0.65,0-1.26,0.1-1.82,0.3
			c-1.17,0.48-1.75,1.51-1.75,3.07c0,0.36,0.06,0.95,0.19,1.78c0.13,0.82,0.19,1.44,0.19,1.84c0,0.8-0.13,1.45-0.39,1.93
			c0.86,0.44,1.96,0.66,3.29,0.66c0.43,0,1.06-0.03,1.9-0.09c0.84-0.06,1.45-0.09,1.84-0.09c2.32,0,3.85,0.86,4.58,2.59
			c-0.87,1.45-2.64,2.19-5.32,2.23c-2.94,0.04-4.78,0.43-5.52,1.17c-0.74,0.74-1.1,1.96-1.1,3.64c0-0.52,0.19,1.39,0.58,5.72
			c0.52,0.12,1.06,0.18,1.62,0.18c1.6,0,3.59-0.46,5.97-1.39c3.25-1.24,5.21-1.95,5.91-2.11c0.17-0.2,0.56-0.02,1.17,0.54
			c0.13,0.4,0.19,0.8,0.19,1.2c0,1.49-0.76,2.49-2.27,3.01c-2.34,0.8-4.65,1.63-6.94,2.47c-2.64,0.84-5.02,1.23-7.14,1.14
			c-0.82-0.08-1.65-0.15-2.47-0.21c-0.82-0.06-1.3-0.37-1.43-0.93c-0.43-1.2-0.65-2.65-0.65-4.34c0-0.56,0.03-1.42,0.1-2.56
			c0.06-1.14,0.1-2.02,0.1-2.62c0-1.45-0.15-2.71-0.45-3.79c-0.04-0.16-0.26-0.54-0.65-1.14c-0.35-0.48-0.52-0.88-0.52-1.2
			c0-0.28,0.09-0.52,0.28-0.72l0.99-0.84C41.86,101.76,41.98,100.55,41.98,98.5z"/>
		<path class="st4" d="M66.58,108.38c0-0.64-0.05-1.67-0.16-3.07c-0.11-1.41-0.16-2.45-0.16-3.13c0-1.53,0.19-2.77,0.58-3.73
			c0.39-0.84,1.21-1.26,2.47-1.26c1.43,0,2.31,0.52,2.66,1.57c0.09,0.24,0.13,0.52,0.13,0.84c0,0.4-0.12,1.01-0.36,1.84
			c-0.24,0.82-0.36,1.46-0.36,1.9c0.39,0.32,0.58,0.56,0.58,0.72c1.47-2.25,2.44-3.61,2.92-4.1c1.21-1.32,2.57-1.99,4.09-1.99
			c0.56,0,1.15,0.08,1.75,0.24c1.51,2.33,2.51,5.24,2.99,8.73c0.13,1,0.32,4.12,0.58,9.34c0.48,1.77,0.19,2.79-0.84,3.07
			c-1.17,0.32-2.08,0.48-2.73,0.48c-1,0-1.56-0.34-1.69-1.02c-0.22-1.53-0.41-4.01-0.58-7.47c-0.13-3.13-0.39-5.56-0.78-7.29
			c-1.21,1.25-2.34,3.15-3.37,5.72c-1.34,3.21-2.29,5.27-2.86,6.17c-0.56,0.9-1.41,1.36-2.53,1.36c-1.17,0-1.93-0.62-2.27-1.87
			c-0.22-0.88-0.3-2.05-0.26-3.49C66.51,109.33,66.58,108.14,66.58,108.38z M73.72,89.23c0.39,0.04,0.79,0.63,1.2,1.78
			c0.41,1.14,0.62,2.22,0.62,3.22c0,1.17-0.39,1.75-1.17,1.75c-0.95,0-2.27-1.26-3.96-3.79c-0.13-0.24-0.19-0.48-0.19-0.72
			c0-0.6,0.41-1.14,1.23-1.63C72.27,89.35,73.03,89.15,73.72,89.23z M82.48,89.17c0,0.84-0.3,1.93-0.91,3.25
			c-0.74,1.53-1.47,2.29-2.21,2.29c-0.65,0-1.17-0.7-1.56-2.11c-0.04-0.16-0.19-1.1-0.45-2.83c-0.17-1.08,0.76-1.63,2.79-1.63
			C81.7,88.14,82.48,88.49,82.48,89.17z M89.23,94.53c0.22,0.48-0.29,1.09-1.53,1.84c-1.23,0.74-2.24,1.01-3.02,0.81
			c-0.65-0.16-0.97-0.68-0.97-1.57c0-1.2,0.37-2.43,1.1-3.67c0.17-0.28,0.43-0.42,0.78-0.42c0.61,0,1.3,0.36,2.08,1.08
			C88.45,93.32,88.97,93.97,89.23,94.53z"/>
		<path class="st4" d="M91.05,96.09c-0.56-0.6-1.14-1.21-1.72-1.84c-0.58-0.62-0.88-1.17-0.88-1.66c0-0.36,0.17-0.72,0.52-1.08
			c2.38-2.77,5.95-4.78,10.71-6.02c4.24-0.84,8.46-1.69,12.66-2.53c0.26-0.04,0.52-0.06,0.78-0.06c0.82,0,1.63,0.27,2.43,0.81
			c0.8,0.54,1.2,1.17,1.2,1.9c0,1.29-1,2.15-2.99,2.59c-1.39,0.48-3.92,0.96-7.59,1.45c-3.16,0.4-5.58,1.02-7.27,1.87
			c-0.78,0.4-1.17,0.82-1.17,1.26c0,0.12,0.02,0.24,0.06,0.36c1.25,1.77,3.48,3.73,6.69,5.9c4.02,2.69,6.45,4.42,7.27,5.18
			c2.29,2.09,3.44,4.28,3.44,6.56c0,0.76-0.13,1.57-0.39,2.41c-0.78,2.73-2.64,4.84-5.58,6.32c-2.68,1.33-5.82,1.99-9.41,1.99
			c-3.33,0-6.36-0.58-9.09-1.75c-1.26-0.52-1.88-1.36-1.88-2.53c0-0.88,0.36-1.78,1.07-2.68c0.71-0.9,1.57-1.58,2.56-2.02
			c0.65-0.12,1.23,0.18,1.75,0.9c0.56,0.84,1.04,1.32,1.43,1.45c0.95,0,2.38,0.22,4.28,0.66c0.69,0.32,1.43,0.48,2.21,0.48
			c0.82,0,1.77-0.22,2.86-0.66c0.91-0.4,1.82-0.78,2.73-1.14c0.78-0.56,1.17-1.3,1.17-2.23c0-0.56-0.15-1.14-0.45-1.75
			c-1.64-1.97-4.53-4.32-8.66-7.05C95.64,100.47,92.73,98.1,91.05,96.09z"/>
		<path class="st4" d="M119.21,104.47c-0.04-2.73,0.82-5.01,2.6-6.84c1.77-1.83,4.05-2.74,6.81-2.74c2.94,0,5.55,1.03,7.82,3.1
			c2.27,2.07,3.39,4.49,3.34,7.26c-0.39,1.12-2.01,2.47-4.87,4.04c-3.55,1.97-5.52,3.13-5.91,3.49c-0.74,0.32-1.1,0.66-1.1,1.02
			c0,0.64,0.48,1.21,1.43,1.72c0.95,0.5,1.79,0.75,2.53,0.75c1.43,0,3.48-0.64,6.17-1.93c0.82,0.56,1.23,1.32,1.23,2.29
			c0,0.76-0.26,1.47-0.78,2.11c-0.52,0.64-1.19,1.02-2.01,1.14c-2.77,0.4-4.52,0.6-5.26,0.6c-1.47,0-2.79-0.24-3.96-0.72
			C122.11,117.64,119.43,112.54,119.21,104.47z M126.29,107.54c3.85-0.16,6.19-1.42,7.01-3.79c0.17-0.32,0.26-0.64,0.26-0.96
			c0-0.84-0.48-1.53-1.43-2.05c-0.95-0.52-2.01-0.78-3.18-0.78c-0.87,0-1.6,0.16-2.21,0.48c-1.26,0.6-1.88,1.87-1.88,3.79
			C124.86,106.35,125.34,107.46,126.29,107.54z"/>
		<path class="st4" d="M146.08,86.58c2.51-2.33,4.59-3.49,6.23-3.49c0.91,0,1.86,0.28,2.86,0.84c0.69,0.4,1.17,1.17,1.43,2.29
			c0.35,1.41,0.67,2.31,0.97,2.71c0.52,0.68,0.97,1.02,1.36,1.02c0.35,0,0.93-0.5,1.75-1.51c0.99-1.12,1.99-1.89,2.99-2.29
			c0.22-0.08,0.43-0.12,0.65-0.12c0.99,0,1.49,0.5,1.49,1.51c0,0.24-0.07,0.46-0.19,0.66c-1.73,2.45-3.12,4.04-4.15,4.76
			c-1.17,0.84-2.75,1.31-4.74,1.39c-1.9,0.08-3.18-0.86-3.83-2.83c-0.56-1.77-1.21-2.55-1.95-2.35c-1.26,0.4-2.4,1.32-3.44,2.77
			c-0.87,1.25-1.93,1.87-3.18,1.87c-0.48,0-1.02-0.06-1.62-0.18c-0.39-0.12-0.61-0.48-0.65-1.08c-0.04-0.6,0.09-1.1,0.39-1.51
			c0.52-0.76,1.06-1.55,1.62-2.35C144.46,88.17,145.13,87.46,146.08,86.58z M143.68,108.38c0-0.64-0.05-1.67-0.16-3.07
			c-0.11-1.41-0.16-2.45-0.16-3.13c0-1.53,0.19-2.77,0.58-3.73c0.39-0.84,1.21-1.26,2.47-1.26c1.43,0,2.31,0.52,2.66,1.57
			c0.09,0.24,0.13,0.52,0.13,0.84c0,0.4-0.12,1.01-0.36,1.84c-0.24,0.82-0.36,1.46-0.36,1.9c0.39,0.32,0.58,0.56,0.58,0.72
			c1.47-2.25,2.44-3.61,2.92-4.1c1.21-1.32,2.57-1.99,4.09-1.99c0.56,0,1.15,0.08,1.75,0.24c1.51,2.33,2.51,5.24,2.99,8.73
			c0.13,1,0.32,4.12,0.58,9.34c0.48,1.77,0.19,2.79-0.84,3.07c-1.17,0.32-2.08,0.48-2.73,0.48c-1,0-1.56-0.34-1.69-1.02
			c-0.22-1.53-0.41-4.01-0.58-7.47c-0.13-3.13-0.39-5.56-0.78-7.29c-1.21,1.25-2.34,3.15-3.37,5.72c-1.34,3.21-2.29,5.27-2.86,6.17
			c-0.56,0.9-1.41,1.36-2.53,1.36c-1.17,0-1.93-0.62-2.27-1.87c-0.22-0.88-0.3-2.05-0.26-3.49
			C143.62,109.33,143.68,108.14,143.68,108.38z"/>
		<path class="st4" d="M182.01,122.75c-0.37-0.22-0.75-0.67-1.14-1.36c-0.35-0.56-0.67-0.84-0.97-0.84
			c-2.29-0.36-4.61-0.72-6.94-1.08c-2.55-0.6-4.37-1.77-5.45-3.49c-0.69-0.84-1.04-1.97-1.04-3.37c0-2.05,0.54-3.73,1.62-5.06
			c2.6-3.25,6.4-4.88,11.42-4.88c2.16,0,3.2,0.06,3.12,0.18c0.35-0.47,0.52-1.15,0.52-2.02c0-1.03-0.32-1.61-0.97-1.75
			c-0.65-0.14-1.3-0.21-1.95-0.21c-1.13,0-2.37,0.24-3.73,0.73c-1.36,0.49-2.69,0.95-3.99,1.38c-0.22,0.08-0.41,0.12-0.58,0.12
			c-0.69,0-1.26-0.46-1.69-1.39c-0.35-0.72-0.52-1.51-0.52-2.35c0-0.52,0.06-0.84,0.19-0.96c2.86-1.81,6.08-2.71,9.67-2.71
			c3.76,0,6.3,1.25,7.59,3.73c0.69,1.37,1.04,2.85,1.04,4.46c0,1.32-0.28,3.19-0.84,5.6c-0.65,2.65-1.04,4.58-1.17,5.78
			c-0.22,3.01-0.43,5.06-0.65,6.14c-0.52,2.45-1.34,3.67-2.47,3.67C182.73,123.08,182.37,122.97,182.01,122.75z M180.81,115.43
			c0.13-0.56,0.41-1.57,0.84-3.01c0.39-1.12,0.58-2.05,0.58-2.77c0-0.84-0.19-1.69-0.58-2.53c-2.21,0.44-4.39,0.86-6.56,1.26
			c-2.55,0.68-3.85,2.09-3.89,4.22c-0.04,0.92,0.91,1.71,2.86,2.35c1.69,0.6,3.37,0.9,5.06,0.9
			C180.11,115.85,180.68,115.71,180.81,115.43z M179.38,111.03c0,0.52-0.19,1.1-0.58,1.75c-0.39,0.64-0.8,0.96-1.23,0.96
			c-0.69,0-1.24-0.28-1.65-0.84c-0.41-0.56-0.57-1.08-0.49-1.57c0.17-0.84,0.91-1.26,2.21-1.26
			C178.79,110.07,179.38,110.39,179.38,111.03z"/>
		<path class="st4" d="M202.87,94.53c1.64,0.6,3.29,1.23,4.93,1.87c1.77,0.8,2.99,1.81,3.63,3.01c0.13,0.16,0.19,0.38,0.19,0.66
			c0,1.12-0.41,1.93-1.23,2.41c-0.39,0.2-0.82,0.3-1.3,0.3c-0.74,0-2.12-0.57-4.15-1.72c-2.03-1.14-3.63-1.72-4.8-1.72
			c-0.87,0-1.71,0.22-2.53,0.66c-0.39,0.24-0.58,0.58-0.58,1.03c0,0.56,0.36,1.21,1.07,1.93c0.71,0.72,1.35,1.19,1.91,1.39
			c4.5,1.49,7.92,3.24,10.25,5.25c0.78,0.69,1.17,1.63,1.17,2.84c0,1.41-0.47,2.84-1.4,4.29c-0.93,1.45-2.44,2.67-4.54,3.65
			c-2.1,0.99-4.25,1.48-6.46,1.48c-3.89,0-6.62-1.51-8.18-4.52c-0.13-0.24-0.19-0.52-0.19-0.84c0-0.68,0.35-1.31,1.04-1.9
			c0.69-0.58,1.43-0.89,2.21-0.93c0.61-0.08,1.15,0.28,1.62,1.08c0.56,0.92,1.02,1.47,1.36,1.63c0.78,0.36,1.67,0.54,2.66,0.54
			c1.51,0,2.84-0.37,3.99-1.11c1.15-0.74,1.72-1.72,1.72-2.92c0-0.92-1-1.81-2.99-2.65c-2.21-0.88-4.39-1.75-6.56-2.59
			c-2.34-1.12-3.96-2.55-4.87-4.28c-0.26-0.52-0.39-1.04-0.39-1.57c0-1.81,1.23-3.55,3.7-5.24c2.34-1.61,4.63-2.41,6.88-2.41
			C201.75,94.17,202.35,94.29,202.87,94.53z"/>
	</g>
</g>
</svg>
