<?xml version="1.0" encoding="utf-8"?>
<!-- Generator: Adobe Illustrator 24.0.0, SVG Export Plug-In . SVG Version: 6.00 Build 0)  -->
<svg version="1.1" id="Capa_1" xmlns="http://www.w3.org/2000/svg" xmlns:xlink="http://www.w3.org/1999/xlink" x="0px" y="0px"
	 viewBox="0 0 193.52 73.55" style="enable-background:new 0 0 193.52 73.55;" xml:space="preserve">
<style type="text/css">
	.st0{fill:#4E4D4D;}
</style>
<g>
	<g>
		<path class="st0" d="M18.94,38.36c0-0.62-0.15-1.61-0.44-2.97c-0.29-1.36-0.44-2.35-0.44-2.97c0-1.07,0.25-1.96,0.75-2.66
			c2-2.85,5.02-4.28,9.06-4.28c3,0,5.65,0.87,7.94,2.6c0.29,0.21,0.44,0.52,0.44,0.93c0,0.46-0.24,0.91-0.72,1.36
			c-0.48,0.45-1.05,0.74-1.72,0.87c-0.75,0.08-1.77-0.04-3.06-0.37c-1.42-0.37-2.42-0.56-3-0.56c-0.62,0-1.21,0.1-1.75,0.31
			c-1.13,0.5-1.69,1.55-1.69,3.16c0,0.37,0.06,0.98,0.19,1.83c0.12,0.85,0.19,1.48,0.19,1.89c0,0.83-0.13,1.49-0.38,1.98
			c0.83,0.46,1.88,0.68,3.17,0.68c0.41,0,1.02-0.03,1.83-0.09c0.81-0.06,1.4-0.09,1.77-0.09c2.24,0,3.71,0.89,4.41,2.66
			c-0.83,1.49-2.54,2.25-5.12,2.29c-2.83,0.04-4.6,0.44-5.31,1.21c-0.71,0.76-1.06,2.01-1.06,3.75c0-0.54,0.19,1.43,0.56,5.89
			c0.5,0.12,1.02,0.19,1.56,0.19c1.54,0,3.46-0.47,5.75-1.43c3.13-1.28,5.02-2,5.69-2.17c0.17-0.21,0.54-0.02,1.13,0.56
			c0.13,0.41,0.19,0.83,0.19,1.24c0,1.53-0.73,2.56-2.19,3.1c-2.25,0.83-4.48,1.67-6.69,2.54c-2.54,0.87-4.83,1.26-6.87,1.18
			c-0.79-0.08-1.58-0.15-2.38-0.22c-0.79-0.06-1.25-0.38-1.37-0.96c-0.42-1.24-0.63-2.73-0.63-4.46c0-0.58,0.03-1.46,0.09-2.63
			c0.06-1.18,0.09-2.08,0.09-2.7c0-1.49-0.15-2.79-0.44-3.9c-0.04-0.16-0.25-0.56-0.62-1.18c-0.33-0.5-0.5-0.91-0.5-1.24
			c0-0.29,0.09-0.54,0.27-0.74l0.95-0.87C18.83,41.71,18.94,40.47,18.94,38.36z"/>
		<path class="st0" d="M42.63,48.53c0-0.66-0.05-1.71-0.16-3.16c-0.1-1.45-0.16-2.52-0.16-3.22c0-1.57,0.19-2.85,0.56-3.84
			c0.38-0.87,1.17-1.3,2.38-1.3c1.37,0,2.23,0.54,2.56,1.61c0.08,0.25,0.13,0.54,0.13,0.87c0,0.41-0.12,1.04-0.34,1.89
			c-0.23,0.85-0.34,1.5-0.34,1.95c0.38,0.33,0.56,0.58,0.56,0.74c1.42-2.31,2.35-3.72,2.81-4.21c1.17-1.36,2.48-2.04,3.94-2.04
			c0.54,0,1.1,0.08,1.69,0.25c1.46,2.4,2.42,5.39,2.87,8.98c0.13,1.03,0.31,4.23,0.56,9.6c0.46,1.82,0.19,2.87-0.81,3.16
			c-1.13,0.33-2,0.5-2.63,0.5c-0.96,0-1.5-0.35-1.63-1.05c-0.21-1.57-0.4-4.13-0.56-7.68c-0.12-3.22-0.38-5.72-0.75-7.5
			c-1.17,1.28-2.25,3.24-3.25,5.89c-1.29,3.31-2.21,5.42-2.75,6.35c-0.54,0.93-1.35,1.39-2.44,1.39c-1.13,0-1.85-0.64-2.19-1.92
			c-0.21-0.91-0.29-2.11-0.25-3.59C42.57,49.5,42.63,48.28,42.63,48.53z M49.5,28.82c0.38,0.04,0.76,0.65,1.16,1.83
			c0.4,1.18,0.59,2.28,0.59,3.31c0,1.2-0.38,1.8-1.13,1.8c-0.92,0-2.19-1.3-3.81-3.9c-0.12-0.25-0.19-0.5-0.19-0.74
			c0-0.62,0.4-1.18,1.19-1.67C48.11,28.95,48.84,28.74,49.5,28.82z M57.94,28.76c0,0.87-0.29,1.98-0.88,3.35
			c-0.71,1.57-1.42,2.35-2.12,2.35c-0.62,0-1.13-0.72-1.5-2.17c-0.04-0.16-0.19-1.14-0.44-2.91c-0.17-1.12,0.73-1.67,2.69-1.67
			C57.19,27.71,57.94,28.06,57.94,28.76z M64.44,34.27c0.21,0.5-0.28,1.13-1.47,1.89c-1.19,0.76-2.16,1.04-2.91,0.84
			c-0.62-0.16-0.94-0.7-0.94-1.61c0-1.24,0.35-2.5,1.06-3.78c0.17-0.29,0.42-0.43,0.75-0.43c0.58,0,1.25,0.37,2,1.12
			C63.69,33.03,64.19,33.7,64.44,34.27z"/>
		<path class="st0" d="M66.19,35.88c-0.54-0.62-1.09-1.25-1.66-1.89c-0.56-0.64-0.84-1.21-0.84-1.7c0-0.37,0.17-0.74,0.5-1.12
			c2.29-2.85,5.73-4.92,10.31-6.2c4.08-0.87,8.15-1.73,12.19-2.6c0.25-0.04,0.5-0.06,0.75-0.06c0.79,0,1.57,0.28,2.34,0.84
			c0.77,0.56,1.16,1.21,1.16,1.95c0,1.32-0.96,2.21-2.87,2.66c-1.33,0.5-3.77,0.99-7.31,1.49c-3.04,0.41-5.37,1.05-7,1.92
			c-0.75,0.41-1.13,0.85-1.13,1.3c0,0.12,0.02,0.25,0.06,0.37c1.21,1.82,3.35,3.84,6.44,6.07c3.87,2.77,6.21,4.54,7,5.33
			c2.21,2.15,3.31,4.4,3.31,6.75c0,0.79-0.12,1.61-0.38,2.48c-0.75,2.81-2.54,4.98-5.37,6.51c-2.58,1.36-5.6,2.04-9.06,2.04
			c-3.21,0-6.13-0.6-8.75-1.8c-1.21-0.54-1.81-1.4-1.81-2.6c0-0.91,0.34-1.83,1.03-2.76c0.69-0.93,1.51-1.62,2.47-2.08
			c0.63-0.12,1.19,0.19,1.69,0.93c0.54,0.87,1,1.36,1.38,1.49c0.92,0,2.29,0.23,4.12,0.68c0.67,0.33,1.38,0.5,2.13,0.5
			c0.79,0,1.71-0.23,2.75-0.68c0.88-0.41,1.75-0.81,2.63-1.18c0.75-0.58,1.12-1.34,1.12-2.29c0-0.58-0.15-1.18-0.44-1.8
			c-1.58-2.02-4.37-4.44-8.34-7.25C70.62,40.39,67.82,37.95,66.19,35.88z"/>
		<path class="st0" d="M93.32,44.5c-0.04-2.81,0.79-5.15,2.5-7.03c1.71-1.88,3.9-2.82,6.56-2.82c2.83,0,5.34,1.06,7.53,3.19
			c2.19,2.13,3.26,4.62,3.22,7.47c-0.38,1.16-1.94,2.54-4.69,4.15c-3.42,2.02-5.31,3.22-5.69,3.59c-0.71,0.33-1.06,0.68-1.06,1.05
			c0,0.66,0.46,1.25,1.37,1.77c0.92,0.52,1.73,0.77,2.44,0.77c1.37,0,3.35-0.66,5.94-1.98c0.79,0.58,1.19,1.36,1.19,2.35
			c0,0.79-0.25,1.51-0.75,2.17c-0.5,0.66-1.15,1.05-1.94,1.18c-2.67,0.41-4.35,0.62-5.06,0.62c-1.42,0-2.69-0.25-3.81-0.74
			C96.11,58.05,93.52,52.8,93.32,44.5z M100.13,47.66c3.71-0.16,5.96-1.47,6.75-3.9c0.17-0.33,0.25-0.66,0.25-0.99
			c0-0.87-0.46-1.57-1.38-2.11c-0.92-0.54-1.94-0.81-3.06-0.81c-0.83,0-1.54,0.17-2.12,0.5c-1.21,0.62-1.81,1.92-1.81,3.9
			C98.75,46.44,99.21,47.58,100.13,47.66z"/>
		<path class="st0" d="M119.19,26.1c2.42-2.4,4.42-3.59,6-3.59c0.87,0,1.79,0.29,2.75,0.87c0.67,0.41,1.13,1.2,1.38,2.35
			c0.33,1.45,0.65,2.38,0.94,2.79c0.5,0.7,0.94,1.05,1.31,1.05c0.33,0,0.9-0.52,1.69-1.55c0.96-1.16,1.92-1.94,2.87-2.35
			c0.21-0.08,0.42-0.12,0.62-0.12c0.96,0,1.44,0.52,1.44,1.55c0,0.25-0.06,0.48-0.19,0.68c-1.67,2.52-3,4.15-4,4.89
			c-1.12,0.87-2.65,1.34-4.56,1.43c-1.83,0.08-3.06-0.89-3.69-2.91c-0.54-1.82-1.17-2.62-1.88-2.42c-1.21,0.41-2.31,1.36-3.31,2.85
			c-0.83,1.28-1.85,1.92-3.06,1.92c-0.46,0-0.98-0.06-1.56-0.19c-0.38-0.12-0.58-0.5-0.63-1.12c-0.04-0.62,0.08-1.14,0.38-1.55
			c0.5-0.78,1.02-1.59,1.56-2.42C117.63,27.73,118.27,27,119.19,26.1z M116.88,48.53c0-0.66-0.05-1.71-0.16-3.16
			c-0.1-1.45-0.16-2.52-0.16-3.22c0-1.57,0.19-2.85,0.56-3.84c0.38-0.87,1.17-1.3,2.38-1.3c1.37,0,2.23,0.54,2.56,1.61
			c0.08,0.25,0.13,0.54,0.13,0.87c0,0.41-0.12,1.04-0.34,1.89c-0.23,0.85-0.34,1.5-0.34,1.95c0.38,0.33,0.56,0.58,0.56,0.74
			c1.42-2.31,2.35-3.72,2.81-4.21c1.17-1.36,2.48-2.04,3.94-2.04c0.54,0,1.1,0.08,1.69,0.25c1.46,2.4,2.42,5.39,2.87,8.98
			c0.13,1.03,0.31,4.23,0.56,9.6c0.46,1.82,0.19,2.87-0.81,3.16c-1.13,0.33-2,0.5-2.63,0.5c-0.96,0-1.5-0.35-1.63-1.05
			c-0.21-1.57-0.4-4.13-0.56-7.68c-0.12-3.22-0.38-5.72-0.75-7.5c-1.17,1.28-2.25,3.24-3.25,5.89c-1.29,3.31-2.21,5.42-2.75,6.35
			c-0.54,0.93-1.35,1.39-2.44,1.39c-1.13,0-1.85-0.64-2.19-1.92c-0.21-0.91-0.29-2.11-0.25-3.59
			C116.81,49.5,116.88,48.28,116.88,48.53z"/>
		<path class="st0" d="M153.78,63.3c-0.35-0.23-0.72-0.69-1.09-1.39c-0.33-0.58-0.65-0.87-0.94-0.87c-2.21-0.37-4.44-0.74-6.69-1.12
			c-2.46-0.62-4.21-1.82-5.25-3.59c-0.67-0.87-1-2.02-1-3.47c0-2.11,0.52-3.84,1.56-5.2c2.5-3.35,6.17-5.02,11-5.02
			c2.08,0,3.08,0.06,3,0.19c0.33-0.49,0.5-1.18,0.5-2.08c0-1.06-0.31-1.66-0.94-1.8c-0.63-0.14-1.25-0.21-1.88-0.21
			c-1.08,0-2.28,0.25-3.59,0.75c-1.31,0.5-2.59,0.98-3.84,1.42c-0.21,0.08-0.4,0.12-0.56,0.12c-0.67,0-1.21-0.47-1.62-1.43
			c-0.33-0.74-0.5-1.55-0.5-2.42c0-0.54,0.06-0.87,0.19-0.99c2.75-1.86,5.85-2.79,9.31-2.79c3.63,0,6.06,1.28,7.31,3.84
			c0.67,1.4,1,2.93,1,4.59c0,1.36-0.27,3.28-0.81,5.76c-0.62,2.73-1,4.71-1.13,5.95c-0.21,3.1-0.42,5.2-0.62,6.32
			c-0.5,2.52-1.29,3.78-2.38,3.78C154.48,63.64,154.14,63.53,153.78,63.3z M152.63,55.77c0.12-0.58,0.4-1.61,0.81-3.1
			c0.38-1.16,0.56-2.11,0.56-2.85c0-0.87-0.19-1.73-0.56-2.6c-2.12,0.45-4.23,0.89-6.31,1.3c-2.46,0.7-3.71,2.15-3.75,4.34
			c-0.04,0.95,0.87,1.76,2.75,2.42c1.63,0.62,3.25,0.93,4.88,0.93C151.96,56.21,152.5,56.06,152.63,55.77z M151.25,51.25
			c0,0.54-0.19,1.14-0.56,1.8c-0.38,0.66-0.77,0.99-1.19,0.99c-0.67,0-1.2-0.29-1.59-0.87c-0.4-0.58-0.55-1.12-0.47-1.61
			c0.17-0.87,0.88-1.3,2.12-1.3C150.69,50.26,151.25,50.59,151.25,51.25z"/>
		<path class="st0" d="M173.88,34.27c1.58,0.62,3.17,1.26,4.75,1.92c1.71,0.83,2.87,1.86,3.5,3.1c0.12,0.17,0.19,0.39,0.19,0.68
			c0,1.16-0.4,1.98-1.19,2.48c-0.38,0.21-0.79,0.31-1.25,0.31c-0.71,0-2.04-0.59-4-1.77c-1.96-1.18-3.5-1.77-4.62-1.77
			c-0.83,0-1.65,0.23-2.44,0.68c-0.38,0.25-0.56,0.6-0.56,1.06c0,0.58,0.34,1.24,1.03,1.99c0.69,0.75,1.3,1.22,1.84,1.43
			c4.33,1.53,7.63,3.34,9.88,5.41c0.75,0.7,1.13,1.68,1.13,2.92c0,1.45-0.45,2.92-1.34,4.41c-0.9,1.49-2.35,2.74-4.37,3.76
			c-2.02,1.01-4.09,1.52-6.22,1.52c-3.75,0-6.38-1.55-7.88-4.65c-0.12-0.25-0.19-0.54-0.19-0.87c0-0.7,0.33-1.35,1-1.95
			c0.67-0.6,1.37-0.92,2.12-0.96c0.58-0.08,1.1,0.29,1.56,1.12c0.54,0.95,0.98,1.51,1.31,1.67c0.75,0.37,1.6,0.56,2.56,0.56
			c1.46,0,2.74-0.38,3.84-1.15c1.1-0.76,1.66-1.77,1.66-3.01c0-0.95-0.96-1.86-2.87-2.73c-2.13-0.91-4.23-1.8-6.31-2.66
			c-2.25-1.16-3.81-2.62-4.69-4.4c-0.25-0.54-0.38-1.07-0.38-1.61c0-1.86,1.19-3.66,3.56-5.39c2.25-1.65,4.46-2.48,6.62-2.48
			C172.79,33.9,173.38,34.03,173.88,34.27z"/>
	</g>
</g>
</svg>
