<?xml version="1.0" encoding="utf-8"?>
<!-- Generator: Adobe Illustrator 24.0.0, SVG Export Plug-In . SVG Version: 6.00 Build 0)  -->
<svg version="1.1" id="Capa_1" xmlns="http://www.w3.org/2000/svg" xmlns:xlink="http://www.w3.org/1999/xlink" x="0px" y="0px"
	 viewBox="0 0 109.15 106.34" style="enable-background:new 0 0 109.15 106.34;" xml:space="preserve">
<style type="text/css">
	.st0{fill:#4E4D4D;}
	.st1{fill:#FFFFFF;}
</style>
<g>
	<g>
		<g>
			<path class="st0" d="M47.58,81.61c0,0-10.44,5.11-15.61-0.78c-3.96-4.52-3.72-8.75-10.2-13.45c-6.39-4.64-16.26-3.28-15.93-9.19
				s9.52-11.62,18.52-6.73c0,0-17.34-28.8,3.57-25.61c0,0-0.11-5.52,5.13-8.54s9.94,3.25,9,4.88c0,0,11.99-10.59,13.65,4.79
				c0,0,5.13-1.97,7.37,3.92c1.95,5.14-0.42,14.81-0.52,16.5c-0.2,3.48,8.39,23.07-8.91,31.26l-5.91,2.88L47.58,81.61z"/>
			<path class="st1" d="M53.43,78.76c0,0-0.66-0.26,0.23-1.05s7.41-9.49,7.2-13.32c0,0-0.05-7.45-0.37-10.36
				c0,0-0.71-9.03-0.61-11.49c0.05-1.28,1.12-12.22-1.8-12.85s-3.6,3.98-4.33,9.44s0.12,12.73-1.07,11.37
				c-1.19-1.36-1.68-4.81-1.74-6.48c-0.09-2.75,0.43-10.42,0.63-10.98c0.13-0.38,2.31-10.86-1.5-10.71s-5.93,0.42-6.41,8.87
				c-0.48,8.45,1.07,18.31,0.62,18.7c-0.44,0.39-4.72-13.48-3.98-18.94c0.73-5.46-1.7-10.88-5.3-10.56
				c-1.9,0.17-5.58,1.72-3.43,15.87s4.5,16.96,2.54,14.6c-3.26-3.94-6.44-12.76-6.06-19.51c0,0,0.24-4.22-5.34-2.5
				c-5.58,1.72,1.65,15.38,4.73,20.69c0,0,6.79,14.05,2.94,15.05c0,0-2.34-10.77-11.14-11.82s-12.54,5.46-8.39,6.61
				S26.16,64.3,29.58,70.9s5.31,10.81,11.63,10.58c0.88-0.03,1.68-0.08,2.39-0.13c4.23-0.31,5.43-0.81,3.38,0.52"/>
			<path class="st1" d="M59.88,42.54c0.08,2.44,0.1,5.55,0.26,6.48c0.52,3.04,1.01,15.66,1.01,15.66s-0.1,1.69-0.59,2.93
				s-2.41,5.34-2.81,4.89c-0.4-0.45,2.11-7.48,2.21-9.17c0.1-1.69,0.59-2.93-1.9-11.16c-2.48-8.23-0.31-9.35,0.28-12.28
				c0,0,1.2-4.12,1.28-5.66c0.09-1.97-0.07-3.21,0.42-0.1c0.46,2.96,0.09,5.05-0.06,6.73C59.94,41.27,59.87,42.12,59.88,42.54z"/>
			<path class="st1" d="M50.07,22.33c3.81-0.15,1.71,10.05,1.5,10.71c-0.17,0.55-0.71,8.23-0.63,10.98
				c0.05,1.67,0.55,5.13,1.74,6.48c0,0-5.54-6.33-4.22-14.72c1.32-8.39,2.31-12.82,0.24-13.39L50.07,22.33z"/>
		</g>
		<g>
			<path class="st0" d="M57.73,96.22c0,0-11.36-3.11-11.36-11.02c0-6.07,3-9.1,1.2-16.98c-1.77-7.77-10.2-13.34-6-17.59
				s14.99-2.43,18.59,7.28c0,0,6-33.36,19.79-16.98c0,0,3.6-4.25,9.6-3.03c6,1.21,5.4,9.1,3.6,9.7c0,0,16.19,0,7.2,12.74
				c0,0,5.22,1.94,3,7.88c-1.94,5.19-10.2,10.92-11.4,12.13c-2.47,2.5-9,23.05-27.62,17.69l-6.42-1.77L57.73,96.22z"/>
			<path class="st1" d="M64.09,97.98c0,0-0.33-0.64,0.87-0.64s12-1.82,14.39-4.85c0,0,4.72-5.11,6.6-8.49
				c1.41-2.54,5.92-7.7,7.32-9.27c0.97-1.09,8.88-8.32,7.08-10.75s-5.4,0.61-9.6,4.25c-4.2,3.64-8.4,9.7-8.4,7.88
				c0-1.82,3-6.07,3-6.07s7.38-7.33,8.38-8.22c1.24-1.1,8.09-6.13,5.41-8.77c-2.75-2.71-4.8-3.64-10.8,2.43
				c-6,6.07-11.4,14.56-12,14.56c-0.6,0,6.18-12.58,9.6-16.98c2.96-3.82,5.79-9.87,2.18-11.99c-1.87-1.1-4.58-1.96-12.38,10.17
				s-7.98,15.82-7.8,12.74c0.3-5.1,4.31-13.32,6.65-19.29c0,0,2.02-3.77-0.65-4.97c-5.4-2.41-9,12.74-10.2,18.8
				c0,0-4.2,15.16-7.8,13.34c0,0,5.4-9.7-0.6-16.38s-13.2-4.25-10.8-0.61c2.4,3.64,8.4,13.95,6.6,21.23
				c-1.8,7.28-3.17,11.72,1.8,15.77c0.69,0.57,1.33,1.06,1.91,1.5c3.43,2.59,4.67,3.02,2.23,2.65"/>
			<path class="st1" d="M93.15,74.9c-1.9,1.72-7.19,9.11-7.19,9.11c-1.71,3.15-6.6,8.48-6.6,8.48s-0.39,0.48-1.95,1.43
				c-1.15,0.7-4.98,2.04-6.07,2.2c-0.59,0.09,6.82-4.24,8.02-5.45s2.4-1.82,6-9.7c3.6-7.88,6-7.28,8.4-9.1c0,0,3.69-2.29,4.75-3.43
				c1.3-1.41,2.08-2.2,0.37,0.16c-1.77,2.45-4.52,5.09-4.52,5.09L93.15,74.9z"/>
			<path class="st1" d="M99.15,53.06c3,2.43-4.96,8.43-7.12,10.34c-1.24,1.1-6.67,6.64-6.67,6.64s-3,4.25-3,6.07
				c0,0,0-8.49,6.6-13.95s10.2-8.49,9-10.31L99.15,53.06z"/>
		</g>
	</g>
</g>
</svg>
