<?xml version="1.0" encoding="utf-8"?>
<!-- Generator: Adobe Illustrator 24.0.0, SVG Export Plug-In . SVG Version: 6.00 Build 0)  -->
<svg version="1.1" id="Capa_1" xmlns="http://www.w3.org/2000/svg" xmlns:xlink="http://www.w3.org/1999/xlink" x="0px" y="0px"
	 viewBox="0 0 137.18 120.03" style="enable-background:new 0 0 137.18 120.03;" xml:space="preserve">
<style type="text/css">
	.st0{fill:#7A3815;}
	.st1{fill:#FDDBC0;}
	.st2{fill:#F9C2A1;}
	.st3{fill:#F9C2A0;}
</style>
<g>
	<g>
		<path class="st0" d="M63.5,87.87c0,0-12.25,6-18.31-0.92c-4.65-5.31-4.36-10.26-11.97-15.78c-7.5-5.44-19.08-3.85-18.69-10.79
			s11.17-13.63,21.73-7.9c0,0-20.35-33.79,4.19-30.05c0,0-0.13-6.48,6.01-10.02s11.66,3.82,10.56,5.73c0,0,14.07-12.43,16.01,5.62
			c0,0,6.02-2.32,8.65,4.6c2.29,6.03-0.49,17.38-0.61,19.36c-0.23,4.09,9.84,27.07-10.45,36.67l-6.93,3.38L63.5,87.87z"/>
		<path class="st1" d="M70.37,84.52c0,0-0.78-0.31,0.27-1.23c1.04-0.92,8.69-11.13,8.45-15.62c0,0-0.06-8.74-0.43-12.16
			c0,0-0.83-10.59-0.72-13.48c0.06-1.5,1.31-14.33-2.11-15.08c-3.42-0.74-4.23,4.67-5.09,11.08c-0.86,6.41,0.14,14.93-1.25,13.34
			c-1.39-1.59-1.98-5.64-2.04-7.61c-0.11-3.23,0.51-12.22,0.73-12.88c0.15-0.44,2.71-12.74-1.76-12.56
			c-4.46,0.18-6.96,0.5-7.52,10.41s1.25,21.48,0.73,21.94c-0.52,0.46-5.53-15.82-4.67-22.22s-2-12.77-6.22-12.38
			c-2.22,0.2-6.55,2.02-4.03,18.62c2.52,16.6,5.28,19.9,2.98,17.13c-3.82-4.62-7.56-14.97-7.11-22.89c0,0,0.28-4.95-6.27-2.94
			s1.94,18.05,5.55,24.28c0,0,7.97,16.49,3.45,17.66c0,0-2.74-12.63-13.07-13.87s-14.72,6.41-9.84,7.75s17.98,5.76,22,13.51
			s6.23,12.69,13.65,12.42c1.04-0.04,1.97-0.09,2.81-0.15c4.97-0.36,6.37-0.94,3.96,0.61"/>
		<path class="st2" d="M77.93,42.03c0.09,2.87,0.11,6.51,0.3,7.6C78.85,53.2,79.42,68,79.42,68s-0.11,1.98-0.69,3.43
			c-0.58,1.45-2.83,6.26-3.3,5.73s2.48-8.78,2.59-10.76s0.69-3.43-2.22-13.09c-2.91-9.66-0.36-10.97,0.33-14.4
			c0,0,1.41-4.84,1.5-6.65c0.11-2.31-0.08-3.77,0.49-0.12c0.54,3.48,0.1,5.92-0.07,7.9C78,40.54,77.92,41.53,77.93,42.03z"/>
		<path class="st3" d="M66.42,18.32c4.46-0.18,2,11.79,1.76,12.56c-0.2,0.65-0.84,9.65-0.73,12.88c0.06,1.96,0.65,6.02,2.04,7.61
			c0,0-6.51-7.43-4.96-17.27c1.55-9.84,2.71-15.04,0.28-15.71L66.42,18.32z"/>
	</g>
	<g>
		<path class="st0" d="M75.41,107.14c0,0-13.33-3.65-13.33-12.92c0-7.12,3.52-10.67,1.41-19.92c-2.08-9.12-11.96-15.66-7.04-20.64
			s17.59-2.85,21.81,8.54c0,0,7.04-39.14,23.22-19.92c0,0,4.22-4.98,11.26-3.56c7.04,1.42,6.33,10.67,4.22,11.39
			c0,0,19,0,8.44,14.94c0,0,6.13,2.27,3.52,9.25c-2.28,6.09-11.96,12.81-13.37,14.23c-2.9,2.93-10.56,27.04-32.41,20.75l-7.53-2.08
			L75.41,107.14z"/>
		<path class="st1" d="M82.87,109.2c0,0-0.39-0.75,1.02-0.75s14.07-2.13,16.89-5.69c0,0,5.54-6,7.74-9.96
			c1.66-2.98,6.94-9.03,8.58-10.87c1.13-1.27,10.41-9.76,8.3-12.61c-2.11-2.85-6.33,0.71-11.26,4.98
			c-4.93,4.27-9.85,11.39-9.85,9.25s3.52-7.12,3.52-7.12s8.66-8.6,9.84-9.64c1.46-1.29,9.49-7.2,6.35-10.29
			c-3.23-3.18-5.63-4.27-12.67,2.85S97.96,76.43,97.26,76.43c-0.7,0,7.25-14.76,11.26-19.92c3.48-4.48,6.79-11.58,2.56-14.07
			c-2.19-1.29-5.38-2.29-14.53,11.94s-9.36,18.57-9.15,14.94c0.35-5.98,5.06-15.62,7.8-22.64c0,0,2.37-4.43-0.76-5.83
			c-6.34-2.83-10.56,14.94-11.96,22.06c0,0-4.93,17.79-9.15,15.66c0,0,6.33-11.39-0.7-19.21s-15.48-4.98-12.67-0.71
			s9.85,16.37,7.74,24.91s-3.71,13.76,2.11,18.5c0.81,0.66,1.56,1.25,2.24,1.76c4.02,3.04,5.48,3.54,2.61,3.11"/>
		<path class="st2" d="M116.96,82.12c-2.23,2.01-8.44,10.69-8.44,10.69c-2.01,3.69-7.75,9.95-7.75,9.95s-0.46,0.57-2.29,1.68
			c-1.35,0.82-5.84,2.4-7.12,2.58c-0.7,0.1,8-4.97,9.4-6.39c1.41-1.42,2.81-2.13,7.04-11.39s7.04-8.54,9.85-10.67
			c0,0,4.33-2.68,5.57-4.03c1.53-1.66,2.44-2.58,0.43,0.19c-2.08,2.87-5.3,5.97-5.3,5.97L116.96,82.12z"/>
		<path class="st3" d="M124,56.5c3.52,2.85-5.82,9.89-8.36,12.13c-1.46,1.29-7.83,7.79-7.83,7.79s-3.52,4.98-3.52,7.12
			c0,0,0-9.96,7.74-16.37c7.74-6.4,11.96-9.96,10.56-12.1L124,56.5z"/>
	</g>
</g>
</svg>
