<svg id="visual" viewBox="0 0 900 200" width="900" height="200" xmlns="http://www.w3.org/2000/svg" xmlns:xlink="http://www.w3.org/1999/xlink" version="1.1"><path d="M0 41L13.7 39.7C27.3 38.3 54.7 35.7 82 39.3C109.3 43 136.7 53 163.8 55.7C191 58.3 218 53.7 245.2 51.7C272.3 49.7 299.7 50.3 327 53.7C354.3 57 381.7 63 409 62.7C436.3 62.3 463.7 55.7 491 54.7C518.3 53.7 545.7 58.3 573 65C600.3 71.7 627.7 80.3 654.8 75.7C682 71 709 53 736.2 46C763.3 39 790.7 43 818 47.3C845.3 51.7 872.7 56.3 886.3 58.7L900 61L900 0L886.3 0C872.7 0 845.3 0 818 0C790.7 0 763.3 0 736.2 0C709 0 682 0 654.8 0C627.7 0 600.3 0 573 0C545.7 0 518.3 0 491 0C463.7 0 436.3 0 409 0C381.7 0 354.3 0 327 0C299.7 0 272.3 0 245.2 0C218 0 191 0 163.8 0C136.7 0 109.3 0 82 0C54.7 0 27.3 0 13.7 0L0 0Z" fill="#a1c4fa"></path><path d="M0 57L13.7 57C27.3 57 54.7 57 82 63.3C109.3 69.7 136.7 82.3 163.8 87.3C191 92.3 218 89.7 245.2 84.7C272.3 79.7 299.7 72.3 327 75C354.3 77.7 381.7 90.3 409 93C436.3 95.7 463.7 88.3 491 87.7C518.3 87 545.7 93 573 98.3C600.3 103.7 627.7 108.3 654.8 101.3C682 94.3 709 75.7 736.2 68.7C763.3 61.7 790.7 66.3 818 71.7C845.3 77 872.7 83 886.3 86L900 89L900 59L886.3 56.7C872.7 54.3 845.3 49.7 818 45.3C790.7 41 763.3 37 736.2 44C709 51 682 69 654.8 73.7C627.7 78.3 600.3 69.7 573 63C545.7 56.3 518.3 51.7 491 52.7C463.7 53.7 436.3 60.3 409 60.7C381.7 61 354.3 55 327 51.7C299.7 48.3 272.3 47.7 245.2 49.7C218 51.7 191 56.3 163.8 53.7C136.7 51 109.3 41 82 37.3C54.7 33.7 27.3 36.3 13.7 37.7L0 39Z" fill="#b8d1fa"></path><path d="M0 145L13.7 143C27.3 141 54.7 137 82 138C109.3 139 136.7 145 163.8 146.3C191 147.7 218 144.3 245.2 146C272.3 147.7 299.7 154.3 327 152.7C354.3 151 381.7 141 409 134.7C436.3 128.3 463.7 125.7 491 127.7C518.3 129.7 545.7 136.3 573 140C600.3 143.7 627.7 144.3 654.8 143C682 141.7 709 138.3 736.2 136C763.3 133.7 790.7 132.3 818 137.3C845.3 142.3 872.7 153.7 886.3 159.3L900 165L900 87L886.3 84C872.7 81 845.3 75 818 69.7C790.7 64.3 763.3 59.7 736.2 66.7C709 73.7 682 92.3 654.8 99.3C627.7 106.3 600.3 101.7 573 96.3C545.7 91 518.3 85 491 85.7C463.7 86.3 436.3 93.7 409 91C381.7 88.3 354.3 75.7 327 73C299.7 70.3 272.3 77.7 245.2 82.7C218 87.7 191 90.3 163.8 85.3C136.7 80.3 109.3 67.7 82 61.3C54.7 55 27.3 55 13.7 55L0 55Z" fill="#cfdffa"></path><path d="M0 185L13.7 182.7C27.3 180.3 54.7 175.7 82 173.3C109.3 171 136.7 171 163.8 170.7C191 170.3 218 169.7 245.2 172C272.3 174.3 299.7 179.7 327 182C354.3 184.3 381.7 183.7 409 181C436.3 178.3 463.7 173.7 491 174C518.3 174.3 545.7 179.7 573 182.3C600.3 185 627.7 185 654.8 185.3C682 185.7 709 186.3 736.2 186.3C763.3 186.3 790.7 185.7 818 186C845.3 186.3 872.7 187.7 886.3 188.3L900 189L900 163L886.3 157.3C872.7 151.7 845.3 140.3 818 135.3C790.7 130.3 763.3 131.7 736.2 134C709 136.3 682 139.7 654.8 141C627.7 142.3 600.3 141.7 573 138C545.7 134.3 518.3 127.7 491 125.7C463.7 123.7 436.3 126.3 409 132.7C381.7 139 354.3 149 327 150.7C299.7 152.3 272.3 145.7 245.2 144C218 142.3 191 145.7 163.8 144.3C136.7 143 109.3 137 82 136C54.7 135 27.3 139 13.7 141L0 143Z" fill="#e5ecfa"></path><path d="M0 201L13.7 201C27.3 201 54.7 201 82 201C109.3 201 136.7 201 163.8 201C191 201 218 201 245.2 201C272.3 201 299.7 201 327 201C354.3 201 381.7 201 409 201C436.3 201 463.7 201 491 201C518.3 201 545.7 201 573 201C600.3 201 627.7 201 654.8 201C682 201 709 201 736.2 201C763.3 201 790.7 201 818 201C845.3 201 872.7 201 886.3 201L900 201L900 187L886.3 186.3C872.7 185.7 845.3 184.3 818 184C790.7 183.7 763.3 184.3 736.2 184.3C709 184.3 682 183.7 654.8 183.3C627.7 183 600.3 183 573 180.3C545.7 177.7 518.3 172.3 491 172C463.7 171.7 436.3 176.3 409 179C381.7 181.7 354.3 182.3 327 180C299.7 177.7 272.3 172.3 245.2 170C218 167.7 191 168.3 163.8 168.7C136.7 169 109.3 169 82 171.3C54.7 173.7 27.3 178.3 13.7 180.7L0 183Z" fill="#fafafa"></path></svg>