<svg id="visual" viewBox="0 0 900 200" width="900" height="200" xmlns="http://www.w3.org/2000/svg" xmlns:xlink="http://www.w3.org/1999/xlink" version="1.1"><rect x="0" y="0" width="900" height="200" fill="#95c8fd"></rect><path d="M0 65L21.5 59.8C43 54.7 86 44.3 128.8 41.5C171.7 38.7 214.3 43.3 257.2 46.5C300 49.7 343 51.3 385.8 54.2C428.7 57 471.3 61 514.2 57.2C557 53.3 600 41.7 642.8 35.5C685.7 29.3 728.3 28.7 771.2 35.7C814 42.7 857 57.3 878.5 64.7L900 72L900 0L878.5 0C857 0 814 0 771.2 0C728.3 0 685.7 0 642.8 0C600 0 557 0 514.2 0C471.3 0 428.7 0 385.8 0C343 0 300 0 257.2 0C214.3 0 171.7 0 128.8 0C86 0 43 0 21.5 0L0 0Z" fill="#035992" stroke-linecap="round" stroke-linejoin="miter"></path></svg>